<?xml version="1.0" encoding="iso-8859-1"?>
<!-- Generator: Adobe Illustrator 19.0.0, SVG Export Plug-In . SVG Version: 6.00 Build 0)  -->
<svg version="1.1" id="Layer_1" xmlns="http://www.w3.org/2000/svg" xmlns:xlink="http://www.w3.org/1999/xlink" x="0px" y="0px"
	 viewBox="0 0 509.287 509.287" style="enable-background:new 0 0 509.287 509.287;" xml:space="preserve">
<circle style="fill:#6EB1E1;" cx="254.644" cy="254.644" r="254.644"/>
<path style="fill:#BDBDBE;" d="M448.593,83.751H60.694c-5.764,0-10.172,4.747-10.172,10.172V372.98h408.583V93.923
	C459.105,88.159,454.358,83.751,448.593,83.751z"/>
<rect x="70.527" y="102.4" style="fill:#F1F3F7;" width="368.572" height="251.592"/>
<rect x="70.527" y="102.4" style="fill:#4B5AA7;" width="368.572" height="38.315"/>
<rect x="116.302" y="113.928" style="fill:#F1F3F7;" width="306.522" height="15.597"/>
<rect x="70.527" y="336.699" style="fill:#393D47;" width="368.572" height="17.632"/>
<path style="fill:#D6D6D8;" d="M0,372.98c0,29.16,23.396,52.556,52.556,52.556h404.175c29.16,0,52.556-23.396,52.556-52.556H0z"/>
<g>
	<rect x="187.507" y="372.98" style="fill:#646B79;" width="133.934" height="11.189"/>
	<rect x="96.297" y="162.416" style="fill:#646B79;" width="190.898" height="102.4"/>
	<rect x="309.234" y="162.416" style="fill:#646B79;" width="49.844" height="30.856"/>
</g>
<rect x="369.928" y="184.795" style="fill:#DEDEDF;" width="52.895" height="8.477"/>
<rect x="309.234" y="205.817" style="fill:#646B79;" width="49.844" height="30.856"/>
<rect x="369.928" y="228.196" style="fill:#DEDEDF;" width="52.895" height="8.477"/>
<rect x="309.234" y="248.879" style="fill:#646B79;" width="49.844" height="30.856"/>
<rect x="369.928" y="271.258" style="fill:#DEDEDF;" width="52.895" height="8.477"/>
<rect x="309.234" y="292.281" style="fill:#646B79;" width="49.844" height="30.856"/>
<rect x="369.928" y="314.66" style="fill:#DEDEDF;" width="52.895" height="8.477"/>
<g>
</g>
<g>
</g>
<g>
</g>
<g>
</g>
<g>
</g>
<g>
</g>
<g>
</g>
<g>
</g>
<g>
</g>
<g>
</g>
<g>
</g>
<g>
</g>
<g>
</g>
<g>
</g>
<g>
</g>
</svg>
