<svg xmlns="http://www.w3.org/2000/svg" xmlns:xlink="http://www.w3.org/1999/xlink" id="Layer_1" x="0" y="0" version="1.1" viewBox="0 0 509.287 509.287" xml:space="preserve" style="enable-background:new 0 0 509.287 509.287"><circle style="fill:#6eb1e1" cx="254.644" cy="254.644" r="254.644"/><path style="fill:#bdbdbe" d="M448.593,83.751H60.694c-5.764,0-10.172,4.747-10.172,10.172V372.98h408.583V93.923	C459.105,88.159,454.358,83.751,448.593,83.751z"/><rect style="fill:#f1f3f7" width="368.572" height="251.592" x="70.527" y="102.4"/><rect style="fill:#4b5aa7" width="368.572" height="38.315" x="70.527" y="102.4"/><rect style="fill:#f1f3f7" width="306.522" height="15.597" x="116.302" y="113.928"/><rect style="fill:#393d47" width="368.572" height="17.632" x="70.527" y="336.699"/><path style="fill:#d6d6d8" d="M0,372.98c0,29.16,23.396,52.556,52.556,52.556h404.175c29.16,0,52.556-23.396,52.556-52.556H0z"/><g><rect style="fill:#646b79" width="133.934" height="11.189" x="187.507" y="372.98"/><rect style="fill:#646b79" width="190.898" height="102.4" x="96.297" y="162.416"/><rect style="fill:#646b79" width="49.844" height="30.856" x="309.234" y="162.416"/></g><rect style="fill:#dededf" width="52.895" height="8.477" x="369.928" y="184.795"/><rect style="fill:#646b79" width="49.844" height="30.856" x="309.234" y="205.817"/><rect style="fill:#dededf" width="52.895" height="8.477" x="369.928" y="228.196"/><rect style="fill:#646b79" width="49.844" height="30.856" x="309.234" y="248.879"/><rect style="fill:#dededf" width="52.895" height="8.477" x="369.928" y="271.258"/><rect style="fill:#646b79" width="49.844" height="30.856" x="309.234" y="292.281"/><rect style="fill:#dededf" width="52.895" height="8.477" x="369.928" y="314.66"/></svg>