<?xml version="1.0" encoding="iso-8859-1"?>
<!-- Generator: Adobe Illustrator 19.0.0, SVG Export Plug-In . SVG Version: 6.00 Build 0)  -->
<svg version="1.1" id="Layer_1" xmlns="http://www.w3.org/2000/svg" xmlns:xlink="http://www.w3.org/1999/xlink" x="0px" y="0px"
	 viewBox="0 0 512 512" style="enable-background:new 0 0 512 512;" xml:space="preserve">
<circle style="fill:#263A7A;" cx="256" cy="256" r="256"/>
<path style="fill:#121149;" d="M183.081,400.179l107.885,109.434c116.384-15.898,207.87-110.001,219.731-227.623l-182.01-181.322
	l-6.459,7.077l-37.071-37.788l-15.508,58.906l-27.876-28.131l-10.912,45.801l-30.599-30.599l-13.36,13.791L183.081,400.179z"/>
<rect x="177.648" y="128.552" style="fill:#FFC61B;" width="17.51" height="160.513"/>
<g>
	<path style="fill:#71E2EF;" d="M197.07,244.303h-21.326c-2.975,0-5.387-2.412-5.387-5.387v-35.918c0-2.975,2.412-5.387,5.387-5.387
		h21.326c2.975,0,5.387,2.412,5.387,5.387v35.918C202.457,241.892,200.045,244.303,197.07,244.303z"/>
	<path style="fill:#71E2EF;" d="M197.07,192.746h-21.326c-2.975,0-5.387-2.412-5.387-5.387v-35.918c0-2.975,2.412-5.387,5.387-5.387
		h21.326c2.975,0,5.387,2.412,5.387,5.387v35.918C202.457,190.335,200.045,192.746,197.07,192.746z"/>
	<path style="fill:#71E2EF;" d="M197.07,142.164h-21.326c-2.975,0-5.387-2.412-5.387-5.387v-13.464
		c0-7.854,6.368-14.222,14.222-14.222h3.656c7.854,0,14.222,6.368,14.222,14.222v13.464
		C202.457,139.752,200.045,142.164,197.07,142.164z"/>
</g>
<rect x="221.108" y="117.26" style="fill:#FFC61B;" width="17.51" height="171.787"/>
<g>
	<path style="fill:#71E2EF;" d="M240.521,241.159h-21.326c-2.975,0-5.387-2.412-5.387-5.387v-39.198
		c0-2.975,2.412-5.387,5.387-5.387h21.326c2.975,0,5.387,2.412,5.387,5.387v39.198C245.908,238.747,243.496,241.159,240.521,241.159
		z"/>
	<path style="fill:#71E2EF;" d="M240.521,185.98h-21.326c-2.975,0-5.387-2.412-5.387-5.387v-39.2c0-2.975,2.412-5.387,5.387-5.387
		h21.326c2.975,0,5.387,2.412,5.387,5.387v39.198C245.908,183.568,243.496,185.98,240.521,185.98z"/>
	<path style="fill:#71E2EF;" d="M240.521,131.841h-21.326c-2.975,0-5.387-2.412-5.387-5.387v-15.789
		c0-7.854,6.368-14.222,14.222-14.222h3.656c7.854,0,14.222,6.368,14.222,14.222v15.789
		C245.908,129.429,243.496,131.841,240.521,131.841z"/>
</g>
<rect x="308.01" y="117.26" style="fill:#FFC61B;" width="17.51" height="171.787"/>
<g>
	<path style="fill:#38C6D9;" d="M327.421,241.159h-21.326c-2.975,0-5.387-2.412-5.387-5.387v-39.198
		c0-2.975,2.412-5.387,5.387-5.387h21.326c2.975,0,5.387,2.412,5.387,5.387v39.198C332.809,238.747,330.397,241.159,327.421,241.159
		z"/>
	<path style="fill:#38C6D9;" d="M327.421,185.98h-21.326c-2.975,0-5.387-2.412-5.387-5.387v-39.2c0-2.975,2.412-5.387,5.387-5.387
		h21.326c2.975,0,5.387,2.412,5.387,5.387v39.198C332.809,183.568,330.397,185.98,327.421,185.98z"/>
	<path style="fill:#38C6D9;" d="M327.421,131.841h-21.326c-2.975,0-5.387-2.412-5.387-5.387v-15.789
		c0-7.854,6.368-14.222,14.222-14.222h3.656c7.854,0,14.222,6.368,14.222,14.222v15.789
		C332.809,129.429,330.397,131.841,327.421,131.841z"/>
</g>
<polygon style="fill:#FFC61B;" points="327.073,356.09 313.654,318.905 382.805,253.785 397.038,268.019 "/>
<path style="fill:#38C6D9;" d="M387.312,281.988l-18.475-18.475c-2.103-2.103-2.103-5.515,0-7.62l14.908-14.908
	c5.554-5.554,14.558-5.554,20.113,0l5.982,5.982c5.554,5.554,5.554,14.558,0,20.113l-14.908,14.908
	C392.826,284.093,389.415,284.093,387.312,281.988z"/>
<rect x="264.551" y="90.091" style="fill:#FFC61B;" width="17.51" height="200.421"/>
<g>
	<path style="fill:#38C6D9;" d="M283.97,240.381h-21.326c-2.975,0-5.387-2.412-5.387-5.387v-47.528c0-2.975,2.412-5.387,5.387-5.387
		h21.326c2.975,0,5.387,2.412,5.387,5.387v47.528C289.358,237.97,286.946,240.381,283.97,240.381z"/>
	<path style="fill:#38C6D9;" d="M283.97,172.287h-21.326c-2.975,0-5.387-2.412-5.387-5.387v-47.528c0-2.975,2.412-5.387,5.387-5.387
		h21.326c2.975,0,5.387,2.412,5.387,5.387V166.9C289.358,169.875,286.946,172.287,283.97,172.287z"/>
	<path style="fill:#38C6D9;" d="M283.97,107.099h-21.326c-2.975,0-5.387-2.412-5.387-5.387V80.024
		c0-7.854,6.368-14.222,14.222-14.222h3.656c7.854,0,14.222,6.368,14.222,14.222v21.688
		C289.358,104.686,286.946,107.099,283.97,107.099z"/>
</g>
<path style="fill:#71E2EF;" d="M223.875,417.456h53.47c31.437,0,56.922-25.484,56.922-56.922v-86.416
	c0-9.481-7.687-17.168-17.167-17.168H184.12c-9.481,0-17.167,7.687-17.167,17.168v86.416
	C166.952,391.971,192.436,417.456,223.875,417.456z"/>
<g>
	<path style="fill:#38C6D9;" d="M317.1,256.95h-67.42v160.506h27.665c31.437,0,56.922-25.484,56.922-56.923v-86.416
		C334.267,264.635,326.582,256.95,317.1,256.95z"/>
	<path style="fill:#38C6D9;" d="M224.947,393.38h51.324c18.17,0,32.897-14.729,32.897-32.899v-62.288
		c0-9.481-7.687-17.168-17.167-17.168h-82.785c-9.481,0-17.167,7.687-17.167,17.168v62.288
		C192.05,378.651,206.779,393.38,224.947,393.38z"/>
</g>
<path style="fill:#1EA3AD;" d="M292.002,281.026h-42.324V393.38h26.593c18.168,0,32.897-14.729,32.897-32.897v-62.288
	C309.17,288.711,301.484,281.026,292.002,281.026z"/>
<path style="fill:#38C6D9;" d="M380.506,294.202l-27.091,46.887c-3.263,5.648-11.898,3.332-11.898-3.191v-50.212
	c0-1.836,0.791-3.582,2.17-4.792l14.203-12.466c2.715-2.382,6.863-2.038,9.147,0.76l12.888,15.791
	C381.6,289.032,381.831,291.907,380.506,294.202z"/>
<g>
</g>
<g>
</g>
<g>
</g>
<g>
</g>
<g>
</g>
<g>
</g>
<g>
</g>
<g>
</g>
<g>
</g>
<g>
</g>
<g>
</g>
<g>
</g>
<g>
</g>
<g>
</g>
<g>
</g>
</svg>
