<?xml version="1.0" encoding="iso-8859-1"?>
<!-- Generator: Adobe Illustrator 19.0.0, SVG Export Plug-In . SVG Version: 6.00 Build 0)  -->
<svg version="1.1" id="Capa_1" xmlns="http://www.w3.org/2000/svg" xmlns:xlink="http://www.w3.org/1999/xlink" x="0px" y="0px"
	 viewBox="0 0 511.999 511.999" style="enable-background:new 0 0 511.999 511.999;" xml:space="preserve">
<circle style="fill:#F4A14E;" cx="255.999" cy="255.999" r="255.999"/>
<path style="fill:#34ABE0;" d="M499.099,289.363v47.114c-1.546,4.681-3.218,9.289-5.026,13.845
	c-2.591,6.52-5.433,12.904-8.537,19.153h-181.3v-80.112c0-6.248,3.511-11.964,9.07-14.785l45.432-23.05l42.924-5.507l5.945,0.763
	h0.01l36.979,4.744l45.422,23.05C495.588,277.399,499.099,283.115,499.099,289.363z"/>
<path style="fill:#279FC9;" d="M407.611,246.787l-36.975,4.738l-45.423,23.051c-5.567,2.826-9.077,8.54-9.077,14.787v80.109h-11.903
	v-80.109c0-6.247,3.51-11.961,9.077-14.787l45.423-23.051l42.931-5.499L407.611,246.787z"/>
<rect x="372.526" y="218.906" style="fill:#F9D6B9;" width="60.255" height="38.745"/>
<g>
	<circle style="fill:#E5BFA3;" cx="343.05" cy="153.673" r="18.621"/>
	<circle style="fill:#E5BFA3;" cx="460.287" cy="153.673" r="18.621"/>
	<path style="fill:#E5BFA3;" d="M388.414,218.903L388.414,218.903h-15.886l0,0h-0.001v16.382h0.001v16.209h15.886l0,0
		c0-5.488,4.57-9.9,10.052-9.642c1.06,0.05,2.125,0.075,3.197,0.075c11.23,0,21.817-2.762,31.119-7.638v-15.386H388.414z"/>
</g>
<path style="fill:#F9D6B9;" d="M468.744,68.488h-134.16v99.728c0,37.048,30.032,67.08,67.08,67.08l0,0
	c37.048,0,67.08-30.032,67.08-67.08V68.488z"/>
<path style="fill:#E5BFA3;" d="M460.828,43.681c-0.204-0.039-0.41-0.066-0.615-0.085c-1.942-0.171-3.857,0.559-5.276,1.896
	c-1.016,0.956-2.313,2.157-3.197,2.888c-11.322,9.377-25.678,14.496-40.517,14.496h-57.174c-6.269,0-12.049,2.092-16.685,5.61
	h-2.781v2.415c-5.038,5.004-8.161,11.937-8.161,19.6v41.094c0,4.886,3.52,8.944,8.161,9.785v26.833
	c0,37.048,30.032,67.08,67.08,67.08l0,0c2.5,0,4.967-0.141,7.397-0.408c-33.566-3.682-59.683-32.125-59.683-66.673v-39.582
	c0-6.19,4.818-11.429,11.003-11.674c0.194-0.007,0.391-0.011,0.587-0.011l0,0c6.312,0,12.455,2.119,17.374,6.076
	c6.382,5.135,14.56,9.283,23.323,8.208c17.455-2.142,16.941-13.671,23.323-18.806c4.918-3.957,11.061-6.076,17.374-6.076h0.273
	c8.069,0,14.367-3.012,14.38,5.055c0.008,5.432,4.287,30.218,9.72,30.341c2.835,0.064,5.413-1.06,7.261-2.912
	c1.799-1.799,2.911-4.285,2.911-7.033v-68.47C476.905,53.788,470.203,45.457,460.828,43.681z"/>
<path style="fill:#5C5E70;" d="M476.905,58.228v85.5c0,2.748-1.112,5.234-2.911,7.033c-1.85,1.854-4.428,2.976-7.261,2.911
	c-5.438-0.122-9.72-4.707-9.72-10.145v-17.029c0-4.047-1.639-7.706-4.292-10.359c-2.653-2.653-6.312-4.292-10.359-4.292
	c-6.312,0-12.454,2.119-17.376,6.077c-6.38,5.133-14.492,8.207-23.324,8.207c-8.828,0-16.94-3.074-23.32-8.207
	c-0.843-0.68-1.724-1.303-2.635-1.87c-0.01-0.01-0.024-0.017-0.034-0.024c-1.735-1.081-3.578-1.959-5.496-2.629
	c-2.941-1.024-6.054-1.554-9.21-1.554c-8.091,0-14.652,6.561-14.652,14.652v17.232c0,2.745-1.112,5.234-2.914,7.033
	c-1.799,1.799-4.285,2.911-7.033,2.911c-5.493,0-9.944-4.452-9.944-9.947V85.401c0-15.257,12.369-27.626,27.626-27.626h57.174
	c14.839,0,29.193-5.118,40.516-14.495c0.884-0.731,2.184-1.932,3.197-2.887c1.422-1.34,3.336-2.068,5.278-1.898
	c0.204,0.017,0.412,0.044,0.615,0.085C470.202,40.356,476.905,48.688,476.905,58.228z"/>
<path style="fill:#494B5B;" d="M354.636,85.401c0-15.257,12.369-27.626,27.626-27.626h-28.212
	c-15.257,0-27.626,12.369-27.626,27.626v58.326c0,5.496,4.452,9.947,9.944,9.947c2.748,0,5.234-1.112,7.033-2.911
	c1.802-1.799,2.915-4.288,2.915-7.033v-17.232c0-5.82,3.403-10.832,8.319-13.197V85.401z"/>
<path style="fill:#E5BFA3;" d="M387.105,150.484c-0.374,3.092-3.102,5.361-6.216,5.361h-16.183c-1.691,0-3.22-0.683-4.329-1.792
	c-1.268-1.273-1.986-3.101-1.746-5.09c0.374-3.092,3.102-5.361,6.216-5.361h16.183c1.691,0,3.22,0.683,4.329,1.792
	C386.628,146.667,387.345,148.495,387.105,150.484z"/>
<path style="fill:#FFFFFF;" d="M387.105,154.776c-0.374,3.092-3.102,5.361-6.216,5.361h-16.183c-1.691,0-3.22-0.683-4.329-1.792
	c-1.268-1.273-1.986-3.101-1.746-5.09c0.374-3.092,3.102-5.361,6.216-5.361h16.183c1.691,0,3.22,0.683,4.329,1.792
	C386.628,150.959,387.345,152.788,387.105,154.776z"/>
<path style="fill:#E5BFA3;" d="M442.926,143.601h-16.323c-3.381,0-6.121,2.741-6.121,6.121l0,0c0,3.38,2.741,6.121,6.121,6.121
	h16.323c3.381,0,6.121-2.741,6.121-6.121l0,0C449.047,146.342,446.307,143.601,442.926,143.601z"/>
<path style="fill:#FFFFFF;" d="M442.926,147.895h-16.323c-3.381,0-6.121,2.741-6.121,6.121l0,0c0,3.38,2.741,6.121,6.121,6.121
	h16.323c3.381,0,6.121-2.741,6.121-6.121l0,0C449.047,150.634,446.307,147.895,442.926,147.895z"/>
<path style="fill:#E5BFA3;" d="M448.221,131.372h-26.913c-1.906,0-3.45,1.544-3.45,3.45l0,0c0,1.906,1.544,3.45,3.45,3.45h26.913
	c1.906,0,3.45-1.544,3.45-3.45l0,0C451.671,132.917,450.126,131.372,448.221,131.372z"/>
<g>
	<path style="fill:#41B787;" d="M378.396,151.996c0,4.496-3.646,8.142-8.142,8.142c-4.496,0-8.142-3.646-8.142-8.142
		c0-1.496,0.404-2.897,1.112-4.101h14.059C377.992,149.098,378.396,150.499,378.396,151.996z"/>
	<path style="fill:#41B787;" d="M440.294,151.996c0,4.496-3.646,8.142-8.142,8.142c-4.496,0-8.142-3.646-8.142-8.142
		c0-1.496,0.404-2.897,1.112-4.101h14.059C439.89,149.098,440.294,150.499,440.294,151.996z"/>
</g>
<g>
	<path style="fill:#E5BFA3;" d="M359.525,131.372c-1.9,0-3.53,1.486-3.564,3.385c-0.036,1.935,1.522,3.515,3.449,3.515h18.908
		c7.508,0,13.594,6.087,13.594,13.594v33.679h3.425c4.4,0,7.967-3.567,7.967-7.967v-35.825c0-5.733-4.648-10.381-10.381-10.381
		C392.924,131.372,359.525,131.372,359.525,131.372z"/>
	<path style="fill:#E5BFA3;" d="M413.172,196.821c-7.472,2.462-15.543,2.462-23.015,0c-1.996-0.651-4.279,0.129-5.166,1.998l0,0
		c-0.886,1.862,0.339,4.291,2.825,5.109c8.992,2.963,18.705,2.963,27.697,0c2.487-0.817,3.713-3.246,2.825-5.109l0,0
		C417.451,196.949,415.167,196.17,413.172,196.821z"/>
	<path style="fill:#E5BFA3;" d="M405.716,211.176h-8.103c-2.066,0-3.741,1.675-3.741,3.741l0,0c0,2.066,1.675,3.741,3.741,3.741
		h8.103c2.066,0,3.741-1.675,3.741-3.741l0,0C409.457,212.85,407.782,211.176,405.716,211.176z"/>
</g>
<polygon style="fill:#FFD15C;" points="416.27,369.472 387.06,369.472 396.986,278.392 406.339,278.392 "/>
<path style="fill:#EDBB4C;" d="M405.007,280.772h-6.684c-3.977,0-7.201-3.223-7.201-7.201v-8.725c0-3.977,3.223-7.201,7.201-7.201
	h6.684c3.977,0,7.201,3.224,7.201,7.201v8.725C412.207,277.548,408.984,280.772,405.007,280.772z"/>
<g>
	<path style="fill:#279FC9;" d="M368.518,239.362l29.735,12.744c3.065,1.313,4.322,4.989,2.702,7.904l-9.63,17.334
		c-1.868,3.362-6.485,3.901-9.076,1.058l-24.505-26.877c-2.259-2.477-1.863-6.369,0.848-8.341l4.4-3.201
		C364.597,238.816,366.696,238.58,368.518,239.362z"/>
	<path style="fill:#279FC9;" d="M434.811,239.362l-29.735,12.744c-3.065,1.313-4.322,4.989-2.702,7.904l9.63,17.334
		c1.868,3.362,6.485,3.901,9.076,1.058l24.505-26.877c2.259-2.477,1.863-6.369-0.848-8.341l-4.4-3.201
		C438.733,238.816,436.634,238.58,434.811,239.362z"/>
	<polygon style="fill:#279FC9;" points="465.773,323.523 446.216,330.665 426.322,323.523 426.322,310.259 465.773,310.259 	"/>
	<polygon style="fill:#279FC9;" points="377.008,323.523 357.453,330.665 337.557,323.523 337.557,310.259 377.008,310.259 	"/>
</g>
<path style="fill:#F9EED7;" d="M425.64,356.209h-20.915c-1.409,0-2.551,1.142-2.551,2.551l0,0c0,1.409,1.142,2.551,2.551,2.551
	h20.915c1.409,0,2.551-1.142,2.551-2.551l0,0C428.191,357.351,427.049,356.209,425.64,356.209z"/>
<path style="fill:#5C5E70;" d="M494.073,350.322c-3.333,8.401-7.105,16.593-11.285,24.534
	c-21.452,40.876-53.645,75.233-92.829,99.338c-38.964,23.98-84.835,37.804-133.956,37.804c-37.219,0-72.589-7.941-104.49-22.225
	V350.322H494.073z"/>
<path style="fill:#E8DBC4;" d="M395.518,360.249h-73.687l10.092,10.971h-10.092l44.931,35.648l37.616-35.648v-2.112
	C404.379,364.215,400.411,360.249,395.518,360.249z"/>
<path style="fill:#F9EED7;" d="M354.306,302.378H222.483c-6.879,0-12.455,5.577-12.455,12.456v92.033h156.734v-92.033
	C366.763,307.955,361.186,302.378,354.306,302.378z"/>
<path style="fill:#FF525D;" d="M303.003,404.928v102.766c-15.235,2.832-30.939,4.305-46.999,4.305
	c-37.219,0-72.589-7.941-104.49-22.225C95.915,464.885,50.817,420.748,24.695,365.839l46.247-23.468l70.98-9.091l9.832,1.254
	l61.147,7.837l75.086,38.107C297.204,385.149,303.003,394.594,303.003,404.928z"/>
<path style="fill:#EF4152;" d="M151.754,334.534l-61.137,7.837l-61.962,31.441c-1.358-2.633-2.685-5.287-3.96-7.973l46.247-23.468
	l70.98-9.091L151.754,334.534z"/>
<g>
	<rect x="93.748" y="288.433" style="fill:#E5BFA3;" width="99.62" height="64.052"/>
	<circle style="fill:#E5BFA3;" cx="34.389" cy="180.6" r="30.785"/>
</g>
<circle style="fill:#F9D6B9;" cx="249.448" cy="180.6" r="30.785"/>
<path style="fill:#E5BFA3;" d="M252.822,92.72L31.018,80.913v123.723c0,61.25,49.652,110.902,110.902,110.902l0,0
	c61.25,0,110.902-49.652,110.902-110.902L252.822,92.72L252.822,92.72z"/>
<path style="fill:#C98847;" d="M173.018,0.001h-62.193c-50.523,0-90.536,42.685-87.276,93.102l8.664,133.966
	c1.444,22.334,12.55,42.93,30.417,56.408l0,0c11.347,8.56,26.185,10.969,39.658,6.441l17.904-6.019
	c14.099-4.74,29.359-4.74,43.458,0l17.904,6.019c13.472,4.529,28.311,2.119,39.658-6.441l0,0
	c17.867-13.478,28.973-34.073,30.417-56.408l8.664-133.966C263.555,42.686,223.541,0.001,173.018,0.001z"/>
<path style="fill:#BA773A;" d="M114.507,283.48c0.742,0.554,1.494,1.087,2.257,1.567l-14.472,4.869
	c-4.483,1.505-9.111,2.247-13.719,2.247c-9.237,0-18.369-2.978-25.934-8.683c-17.868-13.479-28.975-34.074-30.417-56.414
	L23.549,93.1C20.289,42.684,60.308,0,110.829,0h51.869c-50.521,0-90.54,42.684-87.28,93.1l8.673,133.966
	C85.532,249.406,96.639,270.001,114.507,283.48z"/>
<path style="fill:#EF4152;" d="M214.908,360.606c-47.429,15.432-98.548,15.432-145.976,0c-7.614-2.477-11.508-10.925-8.561-18.37
	c1.87-4.725,3.742-9.45,5.612-14.175c2.703-6.828,10.234-10.375,17.229-8.139c38.182,12.206,79.234,12.206,117.416,0
	c6.995-2.236,14.525,1.31,17.228,8.139c1.87,4.725,3.742,9.45,5.612,14.175C226.417,349.681,222.523,358.129,214.908,360.606z"/>
<circle style="fill:#FFFFFF;" cx="288.391" cy="354.627" r="9.236"/>
<g>
</g>
<g>
</g>
<g>
</g>
<g>
</g>
<g>
</g>
<g>
</g>
<g>
</g>
<g>
</g>
<g>
</g>
<g>
</g>
<g>
</g>
<g>
</g>
<g>
</g>
<g>
</g>
<g>
</g>
</svg>
