<?xml version="1.0" encoding="iso-8859-1"?>
<!-- Generator: Adobe Illustrator 19.0.0, SVG Export Plug-In . SVG Version: 6.00 Build 0)  -->
<svg version="1.1" id="Layer_1" xmlns="http://www.w3.org/2000/svg" xmlns:xlink="http://www.w3.org/1999/xlink" x="0px" y="0px"
	 viewBox="0 0 512.001 512.001" style="enable-background:new 0 0 512.001 512.001;" xml:space="preserve">
<circle style="fill:#3A99D7;" cx="256.001" cy="255.996" r="255.996"/>
<path style="fill:#2682BF;" d="M250.319,511.925L128.485,390.091l101.791-110.562l-69.534-73.066l88.01-64.208l51.75,50.617
	l68.211-68.301l143.021,143.021c-6.06,136.004-118.227,244.409-255.727,244.409c-1.902,0-3.794-0.029-5.686-0.072L250.319,511.925
	L250.319,511.925z"/>
<path style="fill:#EBECEC;" d="M334.235,163.341l-94.864,111.358l-12.105-10.519l94.864-111.354l1.989-9.836l31.591-29.714
	l13.001,11.297l-25.017,35.429l-9.459,3.345V163.341z"/>
<path style="fill:#E3E3E3;" d="M334.235,163.341l-92.894,109.045l-4.726-6.743l125.593-146.721l6.499,5.65L343.69,160l-9.459,3.341
	L334.235,163.341L334.235,163.341z"/>
<path style="fill:#006775;" d="M235.958,283.172l6.053-6.966c1.6-1.845,1.406-4.658-0.439-6.262l-9.901-8.603
	c-1.845-1.6-4.658-1.403-6.262,0.439l-6.053,6.966c-6.934-4.798-16.594-3.704-22.248,2.802l-77.187,88.833
	c-6.064,6.981-5.319,17.648,1.662,23.711l13.81,11.998c6.977,6.064,17.648,5.312,23.711-1.665l77.187-88.833
	c5.65-6.506,5.387-16.224-0.331-22.421L235.958,283.172L235.958,283.172z"/>
<path style="fill:#004F59;" d="M235.958,283.172l6.057-6.966c1.6-1.845,1.403-4.658-0.442-6.262l-4.949-4.302L128.489,390.091
	l6.909,6.003c6.98,6.064,17.648,5.312,23.711-1.665l77.187-88.833c5.653-6.506,5.391-16.224-0.331-22.421L235.958,283.172z"/>
<path style="fill:#FFD630;" d="M331.253,311.613c16.109-2.867,33.314,3.381,43.87,17.565c11.077,14.889,11.678,34.289,3.061,49.214
	l-20.802-27.959l-28.699,21.356l20.474,27.517c-16.411,3.348-34.159-2.863-44.945-17.361c-10.555-14.185-11.599-32.466-4.219-47.071
	L210.92,222.038c-20.316,3.923-42.169-3.848-55.501-21.769c-12.552-16.871-14.321-38.392-6.474-56.151l32.315,43.427l43.006-31.995
	l-32.315-43.43c19.267-2.409,39.371,5.463,51.923,22.338c13.336,17.921,14.501,41.082,4.902,59.41l82.481,117.745L331.253,311.613
	L331.253,311.613z"/>
<path style="fill:#F5BE18;" d="M331.253,311.616c16.109-2.87,33.314,3.381,43.866,17.565c11.081,14.889,11.678,34.289,3.064,49.218
	l-20.806-27.962l-13.839,10.304L202.759,171.552l21.503-15.997l-32.315-43.43c19.259-2.413,39.367,5.463,51.923,22.334
	c13.336,17.925,14.498,41.086,4.906,59.41l82.481,117.752L331.253,311.616z"/>
<g>
</g>
<g>
</g>
<g>
</g>
<g>
</g>
<g>
</g>
<g>
</g>
<g>
</g>
<g>
</g>
<g>
</g>
<g>
</g>
<g>
</g>
<g>
</g>
<g>
</g>
<g>
</g>
<g>
</g>
</svg>
