<?xml version="1.0" encoding="iso-8859-1"?>
<!-- Generator: Adobe Illustrator 19.0.0, SVG Export Plug-In . SVG Version: 6.00 Build 0)  -->
<svg version="1.1" id="Layer_1" xmlns="http://www.w3.org/2000/svg" xmlns:xlink="http://www.w3.org/1999/xlink" x="0px" y="0px"
	 viewBox="0 0 512.002 512.002" style="enable-background:new 0 0 512.002 512.002;" xml:space="preserve">
<circle style="fill:#FD8469;" cx="256.001" cy="256" r="256"/>
<path style="fill:#E15050;" d="M507.879,301.963L361.992,156.076l-32.099,101.593L227.287,155.065l-58.335,138.583l-84.606,79.819
	l136.059,136.059c11.635,1.619,23.514,2.476,35.595,2.476C381.694,512,486.223,421.412,507.879,301.963z"/>
<path style="fill:#B8C9D9;" d="M292.549,337.953c0-25.243-15.948-47.652-39.59-55.636l-37.986-12.824h-26.348v103.974h103.924
	V337.953z"/>
<path style="fill:#CFDBE6;" d="M163.256,269.493l-37.986,12.824c-23.643,7.982-39.59,30.392-39.59,55.636v35.512h102.945V269.491
	h-25.369V269.493z"/>
<polygon style="fill:#FEE187;" points="215.306,269.493 189.115,295.684 162.922,269.493 162.922,243.302 215.306,243.302 "/>
<polygon style="fill:#EFC095;" points="188.625,243.302 188.625,295.196 189.115,295.684 215.306,269.493 215.306,243.302 "/>
<polygon style="fill:#FED8B2;" points="162.922,243.302 162.922,269.493 188.625,295.196 188.625,243.302 "/>
<path style="fill:#FFEDB5;" d="M136.731,190.917c0-28.931,23.454-52.384,52.384-52.384s52.384,23.452,52.384,52.384
	s-23.454,78.576-52.384,78.576S136.731,219.848,136.731,190.917z"/>
<path style="fill:#F4E3C3;" d="M136.731,190.917c0,28.767,23.19,77.991,51.895,78.55v-130.92
	C159.921,138.811,136.731,162.151,136.731,190.917z"/>
<path style="fill:#FED8B2;" d="M189.115,138.535c-0.164,0-0.326,0.01-0.49,0.012v130.92c0.164,0.003,0.324,0.026,0.49,0.026
	c28.931,0,52.384-49.645,52.384-78.576S218.046,138.535,189.115,138.535z"/>
<path style="fill:#59595B;" d="M241.498,190.917c0-28.931-23.454-52.384-52.384-52.384s-52.384,23.454-52.384,52.384
	c0,11.545,3.743,26.384,10.069,40.055c-1.483-7.87-1.086-15.915-0.309-21.985c33.251-2.608,65.338-18.165,65.338-18.165
	s4.062,7.465,19.294,14.103c1.079,6.197,2.145,16.274,0.293,26.072C237.75,217.322,241.498,202.469,241.498,190.917z"/>
<path style="fill:#3A3A3F;" d="M136.731,190.917c0,11.545,3.743,26.384,10.069,40.055c-1.483-7.87-1.086-15.915-0.309-21.985
	c15.298-1.2,30.339-5.141,42.132-9.045v-61.395C159.921,138.811,136.731,162.151,136.731,190.917z"/>
<path style="fill:#272525;" d="M241.498,190.917c0-28.931-23.452-52.383-52.384-52.383c-0.164,0-0.326,0.01-0.49,0.012v61.395
	c13.841-4.584,23.204-9.118,23.204-9.118s4.062,7.465,19.294,14.103c1.079,6.197,2.145,16.274,0.293,26.072
	C237.75,217.321,241.498,202.469,241.498,190.917z"/>
<polygon style="fill:#02B2B2;" points="178.099,372.552 185.443,304.404 192.785,304.404 200.127,372.552 "/>
<polygon style="fill:#F9BB6B;" points="185.443,304.404 178.101,372.552 188.625,372.552 188.625,304.404 "/>
<polygon style="fill:#F9B54C;" points="192.785,304.404 188.625,304.404 188.625,372.552 200.127,372.552 "/>
<path style="fill:#324A5E;" d="M150.941,273.487l-26.493,8.832c-23.947,7.982-40.1,30.392-40.1,55.636v35.512h104.279v-2.182
	L150.941,273.487z"/>
<path style="fill:#2B3B4E;" d="M293.882,337.953c0-25.243-16.153-47.652-40.1-55.636l-26.493-8.832l-38.176,99.066l-0.488-1.267
	v2.182h105.257V337.953z"/>
<polygon style="fill:#1D2A38;" points="227.287,273.487 234.545,304.404 220.778,311.287 234.545,327.12 189.113,372.552 "/>
<polygon style="fill:#2B3B4E;" points="150.939,273.487 143.682,304.404 157.449,311.287 143.682,327.12 189.113,372.552 "/>
<polygon style="fill:#38C6D9;" points="203.57,295.798 193.932,318.514 184.295,318.514 174.658,295.798 "/>
<polygon style="fill:#F4A200;" points="203.57,295.798 188.625,295.798 188.625,318.514 193.932,318.514 "/>
<polygon style="fill:#F9B54C;" points="174.658,295.798 184.295,318.514 188.625,318.514 188.625,295.798 "/>
<polygon style="fill:#CFDBE6;" points="211.829,304.404 227.287,273.487 215.306,269.493 189.115,295.684 "/>
<polygon style="fill:#E9EFF4;" points="166.399,304.404 150.941,273.487 162.922,269.493 189.113,295.684 "/>
<path style="fill:#FFFFFF;" d="M297.244,269.493l-37.669,12.824c-23.445,7.982-39.26,30.392-39.26,55.636v35.512h102.345V269.491
	h-25.416V269.493z"/>
<path style="fill:#B8C9D9;" d="M425.459,337.953c0-25.243-15.813-47.652-39.26-55.636l-37.669-12.824h-25.871v103.974h102.8V337.953
	z"/>
<polygon style="fill:#FED8B2;" points="349.08,269.493 322.887,295.684 296.695,269.493 296.695,243.302 349.08,243.302 "/>
<polygon style="fill:#EFC095;" points="322.659,243.302 322.659,295.457 322.887,295.684 349.08,269.493 349.08,243.302 "/>
<path style="fill:#F4E3C3;" d="M270.504,190.917c0-28.931,23.454-52.384,52.384-52.384c28.931,0,52.384,23.452,52.384,52.384
	s-23.454,78.576-52.384,78.576C293.958,269.493,270.504,219.848,270.504,190.917z"/>
<path style="fill:#FED8B2;" d="M322.887,138.535c-0.076,0-0.152,0.005-0.228,0.005v130.941c0.076,0,0.152,0.012,0.228,0.012
	c28.931,0,52.383-49.645,52.383-78.576S351.817,138.535,322.887,138.535z"/>
<path style="fill:#66513C;" d="M364.897,204.928c1.079,6.197,2.145,16.274,0.293,26.072c6.335-13.677,10.083-28.531,10.083-40.083
	c0-28.931-23.454-52.384-52.384-52.384c-28.931,0-52.384,23.454-52.384,52.384c0,11.545,3.743,26.384,10.069,40.055
	c-1.483-7.87-1.086-15.915-0.309-21.985C280.265,208.987,310.637,167.895,364.897,204.928z"/>
<path style="fill:#57442F;" d="M375.271,190.917c0-28.931-23.452-52.383-52.383-52.383c-0.076,0-0.152,0.005-0.228,0.005v50.936
	c11.809,0.26,25.945,4.33,42.237,15.45c1.079,6.197,2.146,16.274,0.293,26.072C371.523,217.321,375.271,202.469,375.271,190.917z"/>
<polygon style="fill:#EAA22F;" points="311.873,372.552 319.216,304.404 326.559,304.404 333.901,372.552 "/>
<polygon style="fill:#E09112;" points="326.559,304.404 322.659,304.404 322.659,372.552 333.901,372.552 "/>
<path style="fill:#734B46;" d="M284.712,273.487l-26.493,8.832c-23.947,7.982-40.1,30.392-40.1,55.636v35.512h104.539v-1.505
	L284.712,273.487z"/>
<path style="fill:#57442F;" d="M427.655,337.953c0-25.243-16.153-47.652-40.1-55.636l-26.493-8.832l-38.174,99.064l-0.228-0.591
	v1.505h104.996v-35.511H427.655z"/>
<polygon style="fill:#42301F;" points="361.061,273.487 368.318,304.404 354.551,311.287 368.318,327.12 322.887,372.552 "/>
<polygon style="fill:#663F3C;" points="284.712,273.487 277.455,304.404 291.222,311.287 277.455,327.12 322.887,372.552 "/>
<polygon style="fill:#FFC61B;" points="337.342,295.798 327.705,318.514 318.068,318.514 308.432,295.798 "/>
<polygon style="fill:#EAA22F;" points="337.342,295.798 322.659,295.798 322.659,318.514 327.705,318.514 "/>
<polygon style="fill:#CFDBE6;" points="345.603,304.404 361.061,273.487 349.08,269.493 322.887,295.684 "/>
<polygon style="fill:#E9EFF4;" points="300.171,304.404 284.712,273.487 296.695,269.493 322.887,295.684 "/>
<g>
</g>
<g>
</g>
<g>
</g>
<g>
</g>
<g>
</g>
<g>
</g>
<g>
</g>
<g>
</g>
<g>
</g>
<g>
</g>
<g>
</g>
<g>
</g>
<g>
</g>
<g>
</g>
<g>
</g>
</svg>
