<?xml version="1.0" encoding="iso-8859-1"?>
<!-- Generator: Adobe Illustrator 19.0.0, SVG Export Plug-In . SVG Version: 6.00 Build 0)  -->
<svg version="1.1" id="Capa_1" xmlns="http://www.w3.org/2000/svg" xmlns:xlink="http://www.w3.org/1999/xlink" x="0px" y="0px"
	 viewBox="0 0 384 384" style="enable-background:new 0 0 384 384;" xml:space="preserve">
<circle style="fill:#EFC84A;" cx="192" cy="192" r="192"/>
<path style="opacity:0.1;enable-background:new    ;" d="M275.44,83.917c-1.52-1.24-3.48-1.92-5.56-1.92c-5.08,0-9.2,4.08-9.28,9.16
	v-1.04c0,0-48.2,33.64-96.16,41.48l-4.32-4.319l-0.96-0.961l-0.08-0.079c-1.2-1-2.72-1.561-4.4-1.561h-55.4
	c-3.92,0-7.08,3.16-7.08,7.08v3.48h-6.68c-1.96,0-3.52,1.6-3.52,3.52v43.36c0,0.84,0.32,1.64,0.84,2.24l0.36,0.359l25.8,25.84
	l14,86.04c0.24,1.52,1,2.8,2.08,3.761l0.2,0.199l82.705,82.73c98.411-8.119,175.783-90.402,176.004-190.856L277.32,85.797
	L275.44,83.917z"/>
<path style="fill:#E1E6E9;" d="M269.867,82c-5.12,0-9.27,4.148-9.27,9.266V229.59c0,5.118,4.15,9.266,9.27,9.266
	c5.12,0,9.27-4.148,9.27-9.266V91.266C279.138,86.148,274.988,82,269.867,82z"/>
<path style="fill:#FFFFFF;" d="M260.609,90.1v140.656c0,0-50.039-34.902-98.855-41.918v-56.786
	C210.57,125.037,260.609,90.1,260.609,90.1z"/>
<path style="fill:#64798A;" d="M161.742,213.731h-9.003v34.519h9.003c3.756,0,6.8-3.043,6.8-6.797v-20.926
	C168.541,216.774,165.497,213.731,161.742,213.731z"/>
<path style="fill:#EBF0F3;" d="M176.082,294.743c-0.326,4.185-4.137,7.257-8.337,7.257h-38.4c-3.158,0-5.849-2.289-6.355-5.404
	l-16.582-102.095h42.671l17.459,91.758h1.676c2.164,0,4.155,0.873,5.587,2.304C175.372,290.131,176.27,292.33,176.082,294.743z"/>
<path style="fill:#D15241;" d="M96.527,185.606H85.501c-1.934,0-3.501-1.567-3.501-3.501v-43.354c0-1.933,1.567-3.501,3.501-3.501
	h11.026V185.606z"/>
<path style="fill:#E56353;" d="M99.281,196.179h55.393c3.911,0,7.081-3.17,7.081-7.081v-57.34c0-3.911-3.17-7.081-7.081-7.081
	H99.281c-3.911,0-7.081,3.17-7.081,7.081v57.34C92.2,193.009,95.37,196.179,99.281,196.179z"/>
<path style="fill:#64798A;" d="M279.138,137.576v45.703c12.626,0,22.862-10.231,22.862-22.852
	C302,147.807,291.764,137.576,279.138,137.576z"/>
<g>
</g>
<g>
</g>
<g>
</g>
<g>
</g>
<g>
</g>
<g>
</g>
<g>
</g>
<g>
</g>
<g>
</g>
<g>
</g>
<g>
</g>
<g>
</g>
<g>
</g>
<g>
</g>
<g>
</g>
</svg>
