<?xml version="1.0" encoding="iso-8859-1"?>
<!-- Generator: Adobe Illustrator 19.0.0, SVG Export Plug-In . SVG Version: 6.00 Build 0)  -->
<svg version="1.1" id="Capa_1" xmlns="http://www.w3.org/2000/svg" xmlns:xlink="http://www.w3.org/1999/xlink" x="0px" y="0px"
	 viewBox="0 0 436.907 436.907" style="enable-background:new 0 0 436.907 436.907;" xml:space="preserve">
<circle style="fill:#E05B49;" cx="218.453" cy="218.453" r="218.453"/>
<g style="opacity:0.1;">
	<path d="M429.31,275.581L272.529,118.8l-0.031,0.028c-0.585-0.651-1.449-1.029-2.375-0.868l-2.701,0.47
		c-41.79-10.163-79.457,11.34-85.201,14.838l-1.049,0.183c-0.136-0.145-0.354-0.369-0.652-0.665l-0.028-0.03l0,0.002
		c-4.624-4.568-28.044-25-69.053-15.875l3.839,22.044c-10.463,3.933-17.65,8.089-19.911,9.466l-2.733,0.476
		c-1.431,0.249-2.389,1.611-2.139,3.041l22.436,128.835c0.104,0.598,0.432,1.083,0.849,1.462l-0.034,0.015l149.962,149.962
		C344.028,415.262,408.054,354.217,429.31,275.581z"/>
</g>
<path style="fill:#27A2DB;" d="M324.943,297.034c13.324-14.327,21.51-33.579,21.51-54.737c0-44.136-35.561-80.044-79.269-80.044
	c-43.708,0-79.269,35.908-79.269,80.044c0,44.136,35.561,80.043,79.269,80.043c22.229,0,42.338-9.3,56.746-24.234
	c0.065,0.044,0.13,0.081,0.195,0.125L324.943,297.034z"/>
<g>
	<path style="fill:#EBF0F3;" d="M300.502,278.055c3.395-10.717,5.268-20.807,6.019-30.215h32.065
		c-1.148,15.234-6.96,29.169-16.02,40.325C315.109,283.688,307.722,280.396,300.502,278.055z"/>
	<path style="fill:#EBF0F3;" d="M256.958,170.64c2.182-0.317,4.392-0.545,6.631-0.657v33.469c-8.901-0.29-16.915-1.586-23.828-3.309
		c6.794-18.085,16.448-28.363,17.378-29.325L256.958,170.64z"/>
	<path style="fill:#EBF0F3;" d="M299.589,240.203h-28.363v-29.111c7.621-0.244,15.744-1.226,24.263-3.23
		C298.153,217.096,299.893,227.921,299.589,240.203z"/>
	<path style="fill:#EBF0F3;" d="M302.45,206.009c6.849-2.022,13.92-4.712,21.167-8.228c9.112,11.776,14.695,26.456,15.147,42.422
		h-31.87C307.119,227.304,305.264,215.845,302.45,206.009z"/>
	<path style="fill:#EBF0F3;" d="M271.226,203.457v-33.444c1.585,0.09,3.152,0.245,4.709,0.438l-0.377,0.366
		c0.938,0.969,10.728,11.399,17.528,29.737C285.421,202.312,278.099,203.217,271.226,203.457z"/>
	<path style="fill:#EBF0F3;" d="M263.589,211.095v29.108h-30.481c-0.309-12.494,1.497-23.48,4.239-32.817
		C244.937,209.318,253.77,210.789,263.589,211.095z"/>
	<path style="fill:#EBF0F3;" d="M263.589,273.385c-8.629,0.515-16.599,2.063-23.659,4.059c-3.54-10.555-5.531-20.441-6.368-29.605
		h30.027V273.385z"/>
	<path style="fill:#EBF0F3;" d="M225.803,240.203h-30.199c0.459-16.202,6.2-31.08,15.551-42.943
		c3.668,2.022,10.291,5.284,19.263,8.144C227.507,215.372,225.574,227.041,225.803,240.203z"/>
	<path style="fill:#EBF0F3;" d="M226.177,247.84c0.79,9.893,2.833,20.545,6.568,31.882c-8.981,3.158-15.965,6.791-20.236,9.281
		c-9.457-11.294-15.549-25.542-16.726-41.163H226.177z"/>
	<path style="fill:#EBF0F3;" d="M235.215,286.666c3.085,8.069,7.04,16.463,12.004,25.155c-11.17-3.283-21.217-9.243-29.421-17.151
		C221.778,292.374,227.735,289.343,235.215,286.666z"/>
	<path style="fill:#EBF0F3;" d="M242.44,284.366c6.333-1.777,13.443-3.14,21.149-3.603v33.849c-2.091-0.105-4.154-0.318-6.195-0.601
		C251,303.656,246.107,293.765,242.44,284.366z"/>
	<path style="fill:#EBF0F3;" d="M271.226,280.628c6.225,0.131,12.755,0.904,19.505,2.526c-3.741,9.829-8.828,20.205-15.568,31.09
		c-1.303,0.147-2.614,0.263-3.936,0.338V280.628z"/>
	<path style="fill:#EBF0F3;" d="M271.226,273.214V247.84h27.909c-0.799,8.747-2.638,18.148-5.884,28.166
		C285.636,274.158,278.253,273.316,271.226,273.214z"/>
	<path style="fill:#EBF0F3;" d="M318.439,191.785c-6.276,2.932-12.394,5.193-18.337,6.937c-4.184-11.634-9.473-20.461-13.421-26.083
		C298.903,176.138,309.803,182.834,318.439,191.785z"/>
	<path style="fill:#EBF0F3;" d="M245.583,173.262c-3.833,5.55-8.792,13.965-12.791,24.909c-7.351-2.34-12.974-4.951-16.478-6.793
		C224.385,183.14,234.392,176.847,245.583,173.262z"/>
	<path style="fill:#EBF0F3;" d="M285.149,312.396c5.423-9.424,9.668-18.503,12.895-27.197c6.292,2.067,12.739,4.955,19.264,8.759
		C308.491,302.701,297.462,309.17,285.149,312.396z"/>
</g>
<path style="fill:#FCD462;" d="M92.632,148.87l177.49-30.91c1.431-0.249,2.792,0.709,3.042,2.139L295.6,248.934
	c0.249,1.431-0.709,2.793-2.139,3.042l-177.49,30.91c-1.431,0.249-2.792-0.709-3.042-2.139L90.493,151.912
	C90.244,150.481,91.201,149.119,92.632,148.87z"/>
<g>
	<path style="fill:#EBF0F3;" d="M94.582,148.881c0,0,41.093-26.724,86.854-15.126l1.729,9.927l20.74,119.095l-86.854,15.126
		L96.39,159.262L94.582,148.881z"/>
	<path style="fill:#EBF0F3;" d="M181.436,133.755c0,0,41.093-26.724,86.854-15.126l1.729,9.927l20.74,119.095l-86.854,15.126
		l-20.661-118.64L181.436,133.755z"/>
</g>
<g>
	<path style="fill:#D5D6DB;" d="M203.905,262.777l-86.854,15.126C117.051,277.902,159.009,251.342,203.905,262.777z"/>
	<path style="fill:#D5D6DB;" d="M290.76,247.651l-86.854,15.126C203.905,262.777,245.863,236.217,290.76,247.651z"/>
</g>
<g>
	<path style="fill:#E1E6E9;" d="M100.237,163.74c0,0,39.836-27.841,77.563-13.508l2.162,12.415c0,0-34.205-17.131-77.563,13.508
		L100.237,163.74z"/>
	<path style="fill:#E1E6E9;" d="M103.665,183.423c0,0,39.836-27.841,77.563-13.508l2.162,12.415c0,0-34.205-17.131-77.563,13.508
		L103.665,183.423z"/>
	<path style="fill:#E1E6E9;" d="M107.093,203.106c0,0,39.836-27.841,77.563-13.508l2.162,12.415c0,0-34.205-17.131-77.563,13.508
		L107.093,203.106z"/>
	<path style="fill:#E1E6E9;" d="M110.521,222.789c0,0,39.836-27.841,77.563-13.508l2.162,12.415c0,0-34.205-17.131-77.563,13.508
		L110.521,222.789z"/>
	<path style="fill:#E1E6E9;" d="M113.948,242.472c0,0,39.836-27.841,77.563-13.508l2.162,12.415c0,0-34.205-17.131-77.563,13.508
		L113.948,242.472z"/>
	<path style="fill:#E1E6E9;" d="M189.024,149.838c0,0,39.836-27.841,77.563-13.508l2.162,12.415c0,0-34.205-17.131-77.563,13.508
		L189.024,149.838z"/>
	<path style="fill:#E1E6E9;" d="M192.451,169.521c0,0,39.836-27.841,77.563-13.508l2.162,12.415c0,0-34.205-17.131-77.563,13.508
		L192.451,169.521z"/>
	<path style="fill:#E1E6E9;" d="M195.879,189.204c0,0,39.836-27.841,77.563-13.508l2.162,12.415c0,0-34.205-17.131-77.563,13.508
		L195.879,189.204z"/>
	<path style="fill:#E1E6E9;" d="M199.307,208.887c0,0,39.836-27.841,77.563-13.508l2.162,12.415c0,0-34.205-17.131-77.563,13.508
		L199.307,208.887z"/>
	<path style="fill:#E1E6E9;" d="M202.735,228.57c0,0,39.836-27.841,77.563-13.508l2.162,12.415c0,0-34.205-17.131-77.563,13.508
		L202.735,228.57z"/>
</g>
<path style="fill:#D5D6DB;" d="M181.359,133.654c0,0-23.892-27.011-69.921-16.77l22.269,127.875c0,0,54.279-16.628,70.14,18.027
	L181.359,133.654z"/>
<polygon style="fill:#FCD462;" points="203.576,265.318 205.695,264.949 182.716,132.995 181.436,133.755 180.491,132.757 "/>
<g>
	<path style="fill:#E1E6E9;" d="M177.215,138.496c0,0-19.808-22.394-57.969-13.904l1.761,10.11c0,0,45.452-11.194,58.602,17.538
		L177.215,138.496z"/>
	<path style="fill:#E1E6E9;" d="M180.448,157.061c0,0-19.808-22.394-57.969-13.904l1.761,10.11c0,0,45.452-11.194,58.602,17.538
		L180.448,157.061z"/>
	<path style="fill:#E1E6E9;" d="M183.681,175.625c0,0-19.808-22.394-57.969-13.904l1.761,10.11c0,0,45.452-11.194,58.602,17.538
		L183.681,175.625z"/>
	<path style="fill:#E1E6E9;" d="M186.914,194.19c0,0-19.809-22.394-57.969-13.904l1.761,10.11c0,0,45.452-11.194,58.602,17.538
		L186.914,194.19z"/>
	<path style="fill:#E1E6E9;" d="M190.147,212.754c0,0-19.809-22.394-57.969-13.904l1.761,10.11c0,0,45.452-11.194,58.602,17.538
		L190.147,212.754z"/>
	<path style="fill:#E1E6E9;" d="M193.38,231.319c0,0-19.808-22.394-57.969-13.904l1.761,10.11c0,0,45.452-11.194,58.602,17.538
		L193.38,231.319z"/>
</g>
<g>
</g>
<g>
</g>
<g>
</g>
<g>
</g>
<g>
</g>
<g>
</g>
<g>
</g>
<g>
</g>
<g>
</g>
<g>
</g>
<g>
</g>
<g>
</g>
<g>
</g>
<g>
</g>
<g>
</g>
</svg>
