<?xml version="1.0" encoding="iso-8859-1"?>
<!-- Generator: Adobe Illustrator 19.0.0, SVG Export Plug-In . SVG Version: 6.00 Build 0)  -->
<svg version="1.1" id="Layer_1" xmlns="http://www.w3.org/2000/svg" xmlns:xlink="http://www.w3.org/1999/xlink" x="0px" y="0px"
	 viewBox="0 0 512 512" style="enable-background:new 0 0 512 512;" xml:space="preserve">
<g>
	<g>
		<circle style="fill:#FEE187;" cx="256" cy="256" r="256"/>
	</g>
	<path style="fill:#FFC61B;" d="M347.181,106.217c-23.373,14.538-47.326,32.401-54.979,58.416
		c-15.515,46.545-34.478,96.539-81.024,117.226c-50.829,23.826-82.173,64.219-118.136,107.844l118.429,118.429
		C225.933,510.667,240.811,512,256,512c136.48,0,247.999-106.803,255.576-241.386L347.181,106.217z"/>
	<g>
		<path style="fill:#273B7A;" d="M284.444,208.593c-5.236,0-9.481-4.246-9.481-9.481v-28.444c0-2.515,0.998-4.925,2.777-6.704
			l56.889-56.889c3.7-3.703,9.707-3.703,13.407,0c3.703,3.701,3.703,9.706,0,13.407l-54.112,54.113v24.517
			C293.926,204.347,289.68,208.593,284.444,208.593z"/>
	</g>
	<g>
		<path style="fill:#273B7A;" d="M142.222,265.481H85.333c-5.235,0-9.481-4.246-9.481-9.481v-85.333
			c0-5.236,4.246-9.481,9.481-9.481c5.236,0,9.481,4.246,9.481,9.481v75.852h47.407c5.236,0,9.481,4.246,9.481,9.481
			C151.704,261.236,147.458,265.481,142.222,265.481z"/>
	</g>
	<g>
		<path style="fill:#71E2EF;" d="M294.221,160.892c22.621,22.621,56.594,26.943,83.572,12.998c2.582-1.334,3.129-4.798,1.074-6.853
			l-90.793-90.791c-2.057-2.057-5.518-1.51-6.853,1.074C267.276,104.298,271.598,138.269,294.221,160.892z"/>
	</g>
	<g>
		<path style="fill:#273B7A;" d="M196.425,237.037c-5.236,0-9.481-4.246-9.481-9.481v-106.97c0-5.236,4.246-9.481,9.481-9.481
			s9.481,4.246,9.481,9.481v106.97C205.907,232.791,201.661,237.037,196.425,237.037z"/>
	</g>
	<g>
		<path style="fill:#366695;" d="M113.004,398.222h285.992c15.282,0,27.67-12.388,27.67-27.67l0,0
			c0-15.282-12.388-27.67-27.67-27.67H113.004c-15.282,0-27.67,12.388-27.67,27.67l0,0
			C85.333,385.834,97.721,398.222,113.004,398.222z"/>
	</g>
	<g>
		<path style="fill:#273B7A;" d="M398.996,342.881H256.288v55.341h142.708c15.282,0,27.67-12.388,27.67-27.67l0,0
			C426.667,355.269,414.279,342.881,398.996,342.881z"/>
	</g>
	<g>
		<circle style="fill:#38C6D9;" cx="113.778" cy="369.778" r="15.515"/>
	</g>
	<g>
		<circle style="fill:#38C6D9;" cx="395.636" cy="369.778" r="15.515"/>
	</g>
	<g>
		<circle style="fill:#38C6D9;" cx="339.265" cy="369.778" r="15.515"/>
	</g>
	<g>
		<circle style="fill:#38C6D9;" cx="282.893" cy="369.778" r="15.515"/>
	</g>
	<g>
		<circle style="fill:#38C6D9;" cx="226.521" cy="369.778" r="15.515"/>
	</g>
	<g>
		<circle style="fill:#38C6D9;" cx="170.149" cy="369.778" r="15.515"/>
	</g>
	<g>
		<path style="fill:#366695;" d="M148.832,318.923H363.17c8.887,0,16.089-7.204,16.089-16.089v-93.665
			c0-8.887-7.204-16.091-16.089-16.091H148.832c-8.887,0-16.091,7.204-16.091,16.091v93.665
			C132.741,311.718,139.945,318.923,148.832,318.923z"/>
	</g>
	<g>
		<path style="fill:#273B7A;" d="M363.17,193.077H255.426v125.845H363.17c8.887,0,16.089-7.204,16.089-16.089v-93.665
			C379.259,200.282,372.055,193.077,363.17,193.077z"/>
	</g>
	<g>
		<path style="fill:#366695;" d="M153.135,142.222h86.581c6.027,0,10.912-4.886,10.912-10.912V97.794
			c0-6.027-4.886-10.912-10.912-10.912h-86.581c-6.027,0-10.912,4.886-10.912,10.912v33.516
			C142.222,137.337,147.108,142.222,153.135,142.222z"/>
	</g>
	<g>
		<circle style="fill:#FFC61B;" cx="156.444" cy="213.333" r="6.034"/>
	</g>
	<g>
		<circle style="fill:#FFC61B;" cx="176.7" cy="213.333" r="6.034"/>
	</g>
</g>
<g>
</g>
<g>
</g>
<g>
</g>
<g>
</g>
<g>
</g>
<g>
</g>
<g>
</g>
<g>
</g>
<g>
</g>
<g>
</g>
<g>
</g>
<g>
</g>
<g>
</g>
<g>
</g>
<g>
</g>
</svg>
