<svg xmlns="http://www.w3.org/2000/svg" xmlns:xlink="http://www.w3.org/1999/xlink" id="Layer_1" x="0" y="0" version="1.1" viewBox="0 0 509.287 509.287" xml:space="preserve" style="enable-background:new 0 0 509.287 509.287"><circle style="fill:#6eb1e1" cx="254.644" cy="254.644" r="254.644"/><rect style="fill:#dededf" width="326.527" height="326.527" x="91.55" y="111.894"/><path style="fill:#f0582f" d="M72.901,91.211v75.274c0,14.241,11.528,26.109,26.109,26.109l0,0	c14.241,0,26.109-11.528,26.109-26.109V91.211H72.901z"/><path style="fill:#fffffc" d="M124.779,91.211v75.274c0,14.241,11.528,26.109,26.109,26.109l0,0	c14.241,0,26.109-11.528,26.109-26.109V91.211H124.779z"/><path style="fill:#f0582f" d="M176.657,91.211v75.274c0,14.241,11.528,26.109,26.109,26.109l0,0	c14.241,0,26.109-11.528,26.109-26.109V91.211H176.657z"/><path style="fill:#fffffc" d="M228.535,91.211v75.274c0,14.241,11.528,26.109,26.109,26.109l0,0	c14.241,0,26.109-11.528,26.109-26.109V91.211H228.535z"/><g><path style="fill:#f0582f" d="M280.752,91.211v75.274c0,14.241,11.529,26.109,26.109,26.109l0,0 c14.241,0,26.109-11.528,26.109-26.109V91.211H280.752z"/><path style="fill:#f0582f" d="M384.509,91.211v75.274c0,14.241,11.529,26.109,26.109,26.109l0,0 c14.241,0,26.109-11.528,26.109-26.109V91.211H384.509z"/></g><path style="fill:#fffffc" d="M332.63,91.211v75.274c0,14.241,11.528,26.109,26.109,26.109l0,0	c14.241,0,26.109-11.528,26.109-26.109V91.211H332.63z"/><rect style="fill:#414753" width="125.796" height="200.053" x="191.915" y="238.368"/><rect style="fill:#646b79" width="103.756" height="188.864" x="202.766" y="249.219"/><circle style="fill:#414753" cx="285.499" cy="343.82" r="8.477"/></svg>