<?xml version="1.0" encoding="iso-8859-1"?>
<!-- Generator: Adobe Illustrator 19.0.0, SVG Export Plug-In . SVG Version: 6.00 Build 0)  -->
<svg version="1.1" id="Capa_1" xmlns="http://www.w3.org/2000/svg" xmlns:xlink="http://www.w3.org/1999/xlink" x="0px" y="0px"
	 viewBox="0 0 512 512" style="enable-background:new 0 0 512 512;" xml:space="preserve">
<circle style="fill:#FF3200;" cx="256" cy="256" r="256"/>
<path style="fill:#CA1C00;" d="M512,256c0-2.934-0.068-5.851-0.165-8.761L359.268,94.672
	c-24.077-26.001-57.756-41.001-93.843-41.001c-70.71,0-128.237,57.527-128.237,128.237v92.905
	c-15.397,25.033-15.326,56.888,0.245,81.843l-36.258,36.259c-6.853,6.853-6.853,18.067,0,24.921l84.33,84.33
	C207.9,508.567,231.549,512,256,512C397.385,512,512,397.385,512,256z"/>
<g>
	<path style="fill:#FFFFFF;" d="M318.129,192.149v28.936h-20.522v-28.936c0-17.518-14.253-31.771-31.772-31.771
		c-17.509,0-31.762,14.253-31.762,31.771v118.177c0,21.595-11.063,43.432-31.986,63.142c-5.112,4.823-10.447,9.142-15.597,12.873
		c-4.104-3.218-8.003-6.679-11.688-10.354c-1.25-1.25-2.472-2.528-3.666-3.824c17.994-12.285,42.415-35.083,42.415-61.836V192.149
		c0-28.833,23.46-52.293,52.284-52.293C294.669,139.856,318.129,163.316,318.129,192.149z"/>
	<path style="fill:#FFFFFF;" d="M277.272,184.873v118.709c0,45.194-23.003,81.22-47.732,104.95c-7.406-2.173-14.552-5-21.343-8.423
		c23.05-19.328,48.553-52.172,48.553-96.527V184.873H277.272z"/>
	<path style="fill:#FFFFFF;" d="M194.663,276.298v22.145c0,28.973-15.839,48.702-34.579,59.952
		c-3.909-5.606-7.379-11.52-10.364-17.723v-0.009c11.278-6.782,24.421-19.561,24.421-42.219v-22.145h20.522V276.298z"/>
	<path style="fill:#FFFFFF;" d="M194.658,241.322h-20.522v-53.58c0-25.207,10.663-49.569,29.255-66.841l13.967,15.035
		c-14.426,13.402-22.7,32.285-22.7,51.805V241.322z"/>
	<path style="fill:#FFFFFF;" d="M356.713,228.392h-20.522v-40.65c0-39.02-31.746-70.766-70.767-70.766
		c-5.309,0-10.606,0.598-15.741,1.776l-4.592-20.001c6.639-1.525,13.48-2.297,20.333-2.297c50.337,0,91.289,40.951,91.289,91.288
		V228.392z"/>
</g>
<g>
	<path style="fill:#00EED0;" d="M354.421,299.5l-20.232-3.434c2.277-13.41,2.006-42.221,2.003-42.511l20.52-0.214
		C356.726,254.597,357.005,284.281,354.421,299.5z"/>
	<path style="fill:#00EED0;" d="M393.662,241.095H373.14v-59.186c0-5.341-0.4-10.711-1.188-15.96l20.294-3.048
		c0.939,6.255,1.416,12.649,1.416,19.008L393.662,241.095L393.662,241.095z"/>
</g>
<path style="fill:#FFFFFF;" d="M157.709,291.227h-20.522V181.909c0-70.71,57.527-128.237,128.237-128.237
	c44.135,0,84.676,22.426,108.444,59.988l-17.341,10.973c-19.986-31.584-54.044-50.44-91.104-50.44
	c-59.394,0-107.715,48.321-107.715,107.716L157.709,291.227L157.709,291.227z"/>
<g>
	<path style="fill:#00EED0;" d="M376.842,348.185l-17.816-10.186c9.233-16.15,14.114-34.519,14.114-53.123h20.522
		C393.662,307.047,387.846,328.939,376.842,348.185z"/>
	<path style="fill:#00EED0;" d="M345.775,379.612c-23.636-8.007-39.089-32.323-45.928-72.273
		c-4.776-27.899-3.499-53.363-3.443-54.433l20.493,1.086l-10.246-0.543l10.247,0.538c-1.338,25.741,2.425,94.998,35.461,106.19
		L345.775,379.612z"/>
	<path style="fill:#00EED0;" d="M327.196,397.693c-7.211,3.992-14.85,7.313-22.816,9.878c-17.901-13.74-27.275-31.967-27.826-33.059
		l18.311-9.263C294.996,365.502,306.618,387.843,327.196,397.693z"/>
	<path style="fill:#00EED0;" d="M318.129,192.148v28.936h-20.522v-28.936c0-17.518-14.253-31.771-31.771-31.771
		c-0.14,0-0.271,0-0.41,0.009v-20.522c0.14-0.009,0.271-0.009,0.41-0.009C294.668,139.855,318.129,163.315,318.129,192.148z"/>
	<path style="fill:#00EED0;" d="M277.272,184.872v118.709c0,20.158-4.58,38.506-11.847,54.737V184.872H277.272z"/>
	<path style="fill:#00EED0;" d="M356.709,187.745v40.643h-20.522v-40.643c0-39.019-31.743-70.772-70.763-70.772V96.451
		C315.759,96.451,356.709,137.401,356.709,187.745z"/>
	<path style="fill:#00EED0;" d="M373.873,113.661l-17.341,10.97c-19.99-31.585-54.047-50.437-91.107-50.437V53.673
		C309.556,53.673,350.105,76.097,373.873,113.661z"/>
</g>
<path style="fill:#57555C;" d="M258.503,370.535c30.383-30.383,30.383-79.644,0-110.027s-79.644-30.383-110.027,0
	c-26.097,26.097-29.778,66.122-11.043,96.149l-36.259,36.259c-6.853,6.853-6.853,18.067,0,24.92c6.853,6.853,18.068,6.853,24.921,0
	l36.258-36.258C192.38,400.313,232.405,396.632,258.503,370.535z"/>
<path style="fill:#2A2A2C;" d="M258.503,370.539c-26.097,26.097-66.124,29.772-96.149,11.034l-36.262,36.262
	c-6.85,6.85-18.063,6.854-24.917,0l157.328-157.328C288.884,290.89,288.889,340.153,258.503,370.539z"/>
<circle style="fill:#00A6FF;" cx="203.49" cy="315.52" r="56.52"/>
<path style="fill:#006EF5;" d="M243.453,355.49c-22.069,22.069-57.859,22.073-79.932,0l79.936-79.937
	C265.531,297.626,265.526,333.416,243.453,355.49z"/>
<g>
</g>
<g>
</g>
<g>
</g>
<g>
</g>
<g>
</g>
<g>
</g>
<g>
</g>
<g>
</g>
<g>
</g>
<g>
</g>
<g>
</g>
<g>
</g>
<g>
</g>
<g>
</g>
<g>
</g>
</svg>
