<?xml version="1.0" encoding="iso-8859-1"?>
<!-- Generator: Adobe Illustrator 19.0.0, SVG Export Plug-In . SVG Version: 6.00 Build 0)  -->
<svg version="1.1" id="Layer_1" xmlns="http://www.w3.org/2000/svg" xmlns:xlink="http://www.w3.org/1999/xlink" x="0px" y="0px"
	 viewBox="0 0 491.52 491.52" style="enable-background:new 0 0 491.52 491.52;" xml:space="preserve">
<circle style="fill:#E05B49;" cx="245.76" cy="245.76" r="245.76"/>
<path style="opacity:0.1;enable-background:new    ;" d="M373.914,104.95H117.606c-6.963,0-12.646,5.683-12.646,12.646v256.307
	c0,3.686,1.638,7.014,4.147,9.318l0.461,0.461l105.914,105.914c9.929,1.221,20.019,1.923,30.278,1.923
	c135.73,0,245.76-110.031,245.76-245.76c0-10.2-0.694-20.231-1.901-30.105L384.256,110.326
	C381.952,107.1,378.163,104.95,373.914,104.95z"/>
<path style="fill:#64798A;" d="M373.918,104.96H117.602c-6.982,0-12.642,5.66-12.642,12.642v256.315
	c0,6.982,5.66,12.642,12.642,12.642h256.315c6.981,0,12.642-5.66,12.642-12.642V117.602
	C386.56,110.62,380.899,104.96,373.918,104.96z"/>
<g>
	<rect x="125.44" y="157.302" style="fill:#EBF0F3;" width="240.64" height="208.778"/>
	<rect x="125.44" y="123.136" style="fill:#EBF0F3;" width="172.068" height="14.556"/>
</g>
<rect x="125.44" y="358.385" style="fill:#D5D6DB;" width="240.64" height="7.695"/>
<circle style="fill:#FCD462;" cx="313.395" cy="130.401" r="7.276"/>
<circle style="fill:#44C4A1;" cx="336.128" cy="130.401" r="7.276"/>
<g>
	<circle style="fill:#E56353;" cx="358.81" cy="130.401" r="7.276"/>
	<path style="fill:#E56353;" d="M148.137,262.3v-5.897l22.049-10.206v5.337l-16.48,7.44v0.518l16.48,7.627v5.337L148.137,262.3z"/>
	<path style="fill:#E56353;" d="M188.578,278.308c-3.463,0-6.442-1.177-8.941-3.531c-2.495-2.358-3.745-5.44-3.745-9.246
		c0-3.809,1.303-6.906,3.908-9.291c2.606-2.388,5.783-3.585,9.528-3.585c3.745,0,6.91,1.299,9.501,3.886l-3.089,3.794
		c-2.152-1.874-4.32-2.811-6.506-2.811c-2.183,0-4.08,0.728-5.688,2.179c-1.608,1.452-2.407,3.322-2.407,5.615
		c0,2.293,0.793,4.236,2.385,5.829c1.592,1.592,3.55,2.388,5.874,2.388c2.328,0,4.518-1.059,6.579-3.185l3.089,3.372
		C196.037,276.78,192.544,278.308,188.578,278.308z"/>
	<path style="fill:#E56353;" d="M224.81,274.586c-2.495,2.484-5.615,3.722-9.36,3.722s-6.864-1.238-9.363-3.722
		c-2.495-2.48-3.745-5.513-3.745-9.105c0-3.589,1.249-6.621,3.745-9.104c2.499-2.48,5.619-3.722,9.363-3.722s6.865,1.242,9.36,3.722
		c2.499,2.484,3.748,5.516,3.748,9.104C228.558,269.073,227.309,272.106,224.81,274.586z M209.808,271.359
		c1.482,1.512,3.364,2.27,5.642,2.27c2.278,0,4.156-0.758,5.642-2.27c1.482-1.517,2.221-3.474,2.221-5.878
		c0-2.4-0.739-4.358-2.221-5.874c-1.486-1.512-3.364-2.27-5.642-2.27c-2.278,0-4.16,0.758-5.642,2.27
		c-1.482,1.516-2.221,3.474-2.221,5.874C207.587,267.885,208.327,269.843,209.808,271.359z"/>
	<path style="fill:#E56353;" d="M236.421,274.749c-2.339-2.369-3.509-5.489-3.509-9.359c0-3.871,1.2-6.96,3.604-9.269
		c2.4-2.309,5.265-3.466,8.59-3.466c3.322,0,5.996,1.405,8.027,4.213V243.2h5.242v34.735h-5.242v-3.745
		c-1.935,2.746-4.758,4.118-8.473,4.118C241.507,278.308,238.764,277.123,236.421,274.749z M238.154,265.599
		c0,2.388,0.762,4.331,2.293,5.829c1.528,1.497,3.322,2.247,5.383,2.247c2.061,0,3.806-0.758,5.242-2.27
		c1.436-1.512,2.156-3.456,2.156-5.829c0-2.37-0.72-4.354-2.156-5.946c-1.436-1.589-3.2-2.385-5.288-2.385
		c-2.091,0-3.886,0.796-5.383,2.385C238.901,261.222,238.154,263.211,238.154,265.599z"/>
	<path style="fill:#E56353;" d="M289.128,267.779h-19.52c0.122,1.809,0.952,3.268,2.48,4.373c1.527,1.108,3.276,1.665,5.242,1.665
		c3.12,0,5.493-0.983,7.116-2.949l2.998,3.276c-2.686,2.777-6.179,4.164-10.487,4.164c-3.497,0-6.469-1.162-8.918-3.486
		c-2.449-2.324-3.673-5.448-3.673-9.363c0-3.916,1.246-7.029,3.745-9.337c2.495-2.309,5.436-3.466,8.823-3.466
		c3.386,0,6.263,1.025,8.636,3.066c2.37,2.045,3.558,4.861,3.558,8.45V267.779z M269.609,263.656h14.278
		c0-2.091-0.655-3.699-1.966-4.823c-1.314-1.12-2.926-1.684-4.846-1.684c-1.92,0-3.645,0.587-5.173,1.756
		C270.371,260.076,269.609,261.661,269.609,263.656z"/>
	<path style="fill:#E56353;" d="M311.879,239.969h4.682l-20.27,43.443h-4.682L311.879,239.969z"/>
	<path style="fill:#E56353;" d="M343.383,256.403v5.897l-22.049,10.156v-5.337l16.476-7.627v-0.518l-16.476-7.44v-5.337
		L343.383,256.403z"/>
</g>
<g>
</g>
<g>
</g>
<g>
</g>
<g>
</g>
<g>
</g>
<g>
</g>
<g>
</g>
<g>
</g>
<g>
</g>
<g>
</g>
<g>
</g>
<g>
</g>
<g>
</g>
<g>
</g>
<g>
</g>
</svg>
