<?xml version="1.0" encoding="iso-8859-1"?>
<!-- Generator: Adobe Illustrator 19.0.0, SVG Export Plug-In . SVG Version: 6.00 Build 0)  -->
<svg version="1.1" id="Layer_1" xmlns="http://www.w3.org/2000/svg" xmlns:xlink="http://www.w3.org/1999/xlink" x="0px" y="0px"
	 viewBox="0 0 509.287 509.287" style="enable-background:new 0 0 509.287 509.287;" xml:space="preserve">
<path style="fill:#6EB1E1;" d="M509.287,254.644C509.287,113.928,395.359,0,254.644,0S0,113.928,0,254.644
	c0,52.895,15.936,102.061,43.74,142.75h421.807C493.012,356.705,509.287,307.539,509.287,254.644z"/>
<g>
	<path style="fill:#F1F3F7;" d="M370.607,107.825c0,64.085-51.878,115.963-115.963,115.963S138.681,171.91,138.681,107.825h-6.781
		c0,28.143,9.494,54.252,25.77,75.274v71.883h6.781v-64.085c6.781,7.46,14.58,13.902,23.057,19.666v44.079h6.781v-40.011
		c6.442,3.73,13.224,6.781,20.344,9.155v30.856h6.781v-28.821c6.103,1.695,12.207,3.052,18.649,3.73v25.091h6.781V230.23
		c2.374,0,5.086,0.339,7.46,0.339c2.713,0,5.086,0,7.46-0.339v24.413h6.781v-25.091c6.442-0.678,12.546-2.034,18.649-3.73v28.821
		h6.781v-30.856c7.121-2.374,13.902-5.425,20.344-9.155v40.011h6.781v-44.079c8.477-5.425,16.276-12.207,23.057-19.666v63.746h6.781
		v-71.544c16.275-20.683,25.77-46.792,25.77-75.274H370.607z"/>
	<path style="fill:#F1F3F7;" d="M115.963,107.825c0,64.085-51.878,115.963-115.963,115.963v6.781c2.713,0,5.086,0,7.46-0.339v24.413
		h6.781v-25.091c6.442-0.678,12.546-2.034,18.649-3.73v28.821h6.781v-30.856c7.121-2.374,13.902-5.425,20.344-9.155v40.011h6.781
		v-44.079c8.477-5.425,16.275-12.207,23.057-19.666v63.746h6.781v-71.544c16.275-20.683,25.77-46.792,25.77-75.274H115.963z"/>
	<path style="fill:#F1F3F7;" d="M509.287,223.788c-64.085,0-115.963-51.878-115.963-115.963h-6.781
		c0,28.143,9.494,54.252,25.77,75.274v71.883h6.781v-64.085c6.781,7.46,14.58,13.902,23.057,19.666v44.079h6.781v-40.011
		c6.442,3.73,13.224,6.781,20.344,9.155v30.856h6.781v-28.821c6.103,1.695,12.207,3.052,18.649,3.73v25.091h6.781V230.23
		c2.374,0,5.086,0.339,7.46,0.339v-6.781H509.287z"/>
</g>
<g>
	<rect x="389.934" y="254.983" style="fill:#D54232;" width="119.354" height="19.666"/>
	<rect x="135.29" y="254.983" style="fill:#D54232;" width="238.707" height="19.666"/>
	<rect x="0" y="254.983" style="fill:#D54232;" width="119.354" height="19.666"/>
</g>
<path style="fill:#4485C5;" d="M43.74,397.393c45.775,67.475,123.083,111.894,210.903,111.894s165.128-44.419,210.903-111.894
	L43.74,397.393L43.74,397.393z"/>
<g>
	<rect x="115.963" y="88.159" style="fill:#F0582F;" width="22.379" height="282.787"/>
	<rect x="370.607" y="88.159" style="fill:#F0582F;" width="22.379" height="282.787"/>
</g>
<g>
	<rect x="106.808" y="367.555" style="fill:#F6CEB0;" width="40.689" height="29.838"/>
	<rect x="361.452" y="367.555" style="fill:#F6CEB0;" width="40.689" height="29.838"/>
</g>
<g>
</g>
<g>
</g>
<g>
</g>
<g>
</g>
<g>
</g>
<g>
</g>
<g>
</g>
<g>
</g>
<g>
</g>
<g>
</g>
<g>
</g>
<g>
</g>
<g>
</g>
<g>
</g>
<g>
</g>
</svg>
