<?xml version="1.0" encoding="iso-8859-1"?>
<!-- Generator: Adobe Illustrator 19.0.0, SVG Export Plug-In . SVG Version: 6.00 Build 0)  -->
<svg version="1.1" id="Layer_1" xmlns="http://www.w3.org/2000/svg" xmlns:xlink="http://www.w3.org/1999/xlink" x="0px" y="0px"
	 viewBox="0 0 496.162 496.162" style="enable-background:new 0 0 496.162 496.162;" xml:space="preserve">
<path style="fill:#EDC92F;" d="M248.077,0C111.072,0,0.002,111.062,0.002,248.083c0,137.005,111.07,248.079,248.075,248.079
	c137.013,0,248.083-111.074,248.083-248.079C496.16,111.062,385.09,0,248.077,0z"/>
<path style="fill:#C2C6C6;" d="M336.442,143.214l-79.833-36.336c-1.35-0.611-2.867-0.713-4.282-0.3l-122.82,36.331
	c-2.608,0.774-4.401,3.172-4.401,5.889v90.069c0,2.735,1.811,5.146,4.443,5.901l122.818,35.316c0.559,0.162,1.129,0.24,1.699,0.24
	c0.852,0,1.696-0.18,2.482-0.528l79.833-35.316c2.225-0.984,3.657-3.185,3.657-5.614v-90.063
	C340.039,146.393,338.63,144.21,336.442,143.214z"/>
<path style="fill:#B6B7B7;" d="M252.327,106.579l-122.82,36.331l124.896,0.186l0.09-36.75
	C253.771,106.297,253.034,106.375,252.327,106.579z"/>
<path style="fill:#A1ACAD;" d="M336.442,143.214l-82.04-0.12l-0.121,49.464h85.758v-43.755
	C340.039,146.393,338.63,144.21,336.442,143.214z"/>
<path style="fill:#919A9B;" d="M129.507,142.909c-2.608,0.774-4.401,3.172-4.401,5.889v43.754l129.176,0.006l0.121-49.464
	L129.507,142.909z"/>
<path style="fill:#5A5E5E;" d="M254.156,244.595l-0.09,35.73c0.852,0,1.696-0.18,2.482-0.528l79.833-35.316L254.156,244.595z"/>
<path style="fill:#859193;" d="M254.281,192.559l-0.125,52.036l82.226-0.114c2.225-0.984,3.657-3.185,3.657-5.614v-46.309h-85.758
	V192.559z"/>
<g>
	<path style="fill:#72797A;" d="M129.549,244.769l122.818,35.316c0.559,0.162,1.129,0.24,1.699,0.24l0.09-35.73L129.549,244.769z"/>
	<path style="fill:#72797A;" d="M125.105,192.553v46.315c0,2.735,1.811,5.146,4.443,5.901l124.607-0.174l0.125-52.036
		L125.105,192.553z"/>
</g>
<g>
	<path style="fill:#6A6D6D;" d="M370.235,288.512H100.031c-12.15,0-22.003,9.853-22.003,22.003c0,12.149,9.853,22.003,22.003,22.003
		h270.204c12.149,0,22.003-9.854,22.003-22.003C392.238,298.365,382.385,288.512,370.235,288.512z"/>
	<path style="fill:#6A6D6D;" d="M121.525,303.858c-12.714,0-23.023,5.505-23.023,12.289l10.741,60.588
		c0,6.789,5.499,12.288,12.282,12.288c6.782,0,12.287-5.499,12.287-12.288l10.741-60.588
		C144.554,309.363,134.238,303.858,121.525,303.858z"/>
	<path style="fill:#6A6D6D;" d="M415.063,139.077h-56.601c-1.697,0-3.07,1.374-3.07,3.07v148.409c0,1.458,1.019,2.711,2.447,3.005
		l24.563,5.115c0.203,0.048,0.414,0.066,0.623,0.066c0.703,0,1.386-0.24,1.938-0.689c0.719-0.582,1.133-1.458,1.133-2.381v-36.846
		h28.967c1.696,0,3.069-1.374,3.069-3.07V142.147C418.133,140.451,416.76,139.077,415.063,139.077z"/>
</g>
<path style="fill:#393A3A;" d="M356.418,314.095c-20.918,0-37.866,16.954-37.866,37.872c0,20.912,16.948,37.865,37.866,37.865
	s37.865-16.954,37.865-37.865C394.283,331.049,377.336,314.095,356.418,314.095z"/>
<path style="fill:#161616;" d="M356.418,332.518c-10.74,0-19.443,8.708-19.443,19.449c0,10.734,8.703,19.442,19.443,19.442
	s19.442-8.708,19.442-19.442C375.86,341.226,367.158,332.518,356.418,332.518z"/>
<path style="fill:#5A5E5E;" d="M282.726,211.234c0-16.672-13.518-30.19-30.189-30.19c-16.678,0-30.195,13.518-30.195,30.19
	l-14.327,119.755c0,16.672,27.845,30.189,44.522,30.189c16.672,0,44.517-13.518,44.517-30.189L282.726,211.234z"/>
<path style="fill:#525454;" d="M222.341,211.234l-14.327,119.755c0,16.672,27.845,30.189,44.522,30.189V181.044
	C235.858,181.044,222.341,194.562,222.341,211.234z"/>
<circle style="fill:#424444;" cx="252.021" cy="209.701" r="12.282"/>
<g>
</g>
<g>
</g>
<g>
</g>
<g>
</g>
<g>
</g>
<g>
</g>
<g>
</g>
<g>
</g>
<g>
</g>
<g>
</g>
<g>
</g>
<g>
</g>
<g>
</g>
<g>
</g>
<g>
</g>
</svg>
