<?xml version="1.0" encoding="iso-8859-1"?>
<!-- Generator: Adobe Illustrator 19.0.0, SVG Export Plug-In . SVG Version: 6.00 Build 0)  -->
<svg version="1.1" id="Layer_1" xmlns="http://www.w3.org/2000/svg" xmlns:xlink="http://www.w3.org/1999/xlink" x="0px" y="0px"
	 viewBox="0 0 512 512" style="enable-background:new 0 0 512 512;" xml:space="preserve">
<path style="fill:#88C5CC;" d="M256,0C114.616,0,0,114.616,0,256s114.616,256,256,256s256-114.616,256-256S397.384,0,256,0z"/>
<path style="fill:#2D4452;" d="M376,352c0,13.2-10.8,24-24,24H160c-13.2,0-24-10.8-24-24V160c0-13.2,10.8-24,24-24h192
	c13.2,0,24,10.8,24,24V352z"/>
<path style="fill:#233540;" d="M352,136h-16c13.2,0,24,10.8,24,24v192c0,13.2-10.8,24-24,24h16c13.2,0,24-10.8,24-24V160
	C376,146.8,365.2,136,352,136z"/>
<g>
	<circle style="fill:#C2D5D8;" cx="352" cy="160" r="4"/>
	<circle style="fill:#C2D5D8;" cx="160" cy="160" r="4"/>
	<circle style="fill:#C2D5D8;" cx="352" cy="352" r="4"/>
	<circle style="fill:#C2D5D8;" cx="160" cy="352" r="4"/>
</g>
<g>
	<path style="fill:#F5F5F5;" d="M184,116c-2.212,0-4-1.792-4-4V60c0-2.208,1.788-4,4-4s4,1.792,4,4v52
		C188,114.208,186.212,116,184,116z"/>
	<path style="fill:#F5F5F5;" d="M204,116c-2.212,0-4-1.792-4-4V60c0-2.208,1.788-4,4-4s4,1.792,4,4v52
		C208,114.208,206.212,116,204,116z"/>
	<path style="fill:#F5F5F5;" d="M228,116c-2.212,0-4-1.792-4-4V60c0-2.208,1.788-4,4-4s4,1.792,4,4v52
		C232,114.208,230.212,116,228,116z"/>
	<path style="fill:#F5F5F5;" d="M248,116c-2.212,0-4-1.792-4-4V60c0-2.208,1.788-4,4-4s4,1.792,4,4v52
		C252,114.208,250.212,116,248,116z"/>
	<path style="fill:#F5F5F5;" d="M268,116c-2.212,0-4-1.792-4-4V60c0-2.208,1.788-4,4-4s4,1.792,4,4v52
		C272,114.208,270.212,116,268,116z"/>
	<path style="fill:#F5F5F5;" d="M288,116c-2.212,0-4-1.792-4-4V60c0-2.208,1.788-4,4-4s4,1.792,4,4v52
		C292,114.208,290.212,116,288,116z"/>
	<path style="fill:#F5F5F5;" d="M312,116c-2.212,0-4-1.792-4-4V60c0-2.208,1.788-4,4-4s4,1.792,4,4v52
		C316,114.208,314.212,116,312,116z"/>
	<path style="fill:#F5F5F5;" d="M332,116c-2.212,0-4-1.792-4-4V60c0-2.208,1.788-4,4-4s4,1.792,4,4v52
		C336,114.208,334.212,116,332,116z"/>
	<path style="fill:#F5F5F5;" d="M184,456c-2.212,0-4-1.792-4-4v-52c0-2.208,1.788-4,4-4s4,1.792,4,4v52
		C188,454.208,186.212,456,184,456z"/>
	<path style="fill:#F5F5F5;" d="M204,456c-2.212,0-4-1.792-4-4v-52c0-2.208,1.788-4,4-4s4,1.792,4,4v52
		C208,454.208,206.212,456,204,456z"/>
	<path style="fill:#F5F5F5;" d="M228,456c-2.212,0-4-1.792-4-4v-52c0-2.208,1.788-4,4-4s4,1.792,4,4v52
		C232,454.208,230.212,456,228,456z"/>
	<path style="fill:#F5F5F5;" d="M248,456c-2.212,0-4-1.792-4-4v-52c0-2.208,1.788-4,4-4s4,1.792,4,4v52
		C252,454.208,250.212,456,248,456z"/>
	<path style="fill:#F5F5F5;" d="M268,456c-2.212,0-4-1.792-4-4v-52c0-2.208,1.788-4,4-4s4,1.792,4,4v52
		C272,454.208,270.212,456,268,456z"/>
	<path style="fill:#F5F5F5;" d="M288,456c-2.212,0-4-1.792-4-4v-52c0-2.208,1.788-4,4-4s4,1.792,4,4v52
		C292,454.208,290.212,456,288,456z"/>
	<path style="fill:#F5F5F5;" d="M312,456c-2.212,0-4-1.792-4-4v-52c0-2.208,1.788-4,4-4s4,1.792,4,4v52
		C316,454.208,314.212,456,312,456z"/>
	<path style="fill:#F5F5F5;" d="M332,456c-2.212,0-4-1.792-4-4v-52c0-2.208,1.788-4,4-4s4,1.792,4,4v52
		C336,454.208,334.212,456,332,456z"/>
	<path style="fill:#F5F5F5;" d="M112,336H60c-2.212,0-4-1.792-4-4s1.788-4,4-4h52c2.212,0,4,1.792,4,4S114.212,336,112,336z"/>
	<path style="fill:#F5F5F5;" d="M112,316H60c-2.212,0-4-1.792-4-4s1.788-4,4-4h52c2.212,0,4,1.792,4,4S114.212,316,112,316z"/>
	<path style="fill:#F5F5F5;" d="M112,292H60c-2.212,0-4-1.792-4-4s1.788-4,4-4h52c2.212,0,4,1.792,4,4S114.212,292,112,292z"/>
	<path style="fill:#F5F5F5;" d="M112,272H60c-2.212,0-4-1.792-4-4s1.788-4,4-4h52c2.212,0,4,1.792,4,4S114.212,272,112,272z"/>
	<path style="fill:#F5F5F5;" d="M112,252H60c-2.212,0-4-1.792-4-4s1.788-4,4-4h52c2.212,0,4,1.792,4,4S114.212,252,112,252z"/>
	<path style="fill:#F5F5F5;" d="M112,232H60c-2.212,0-4-1.792-4-4s1.788-4,4-4h52c2.212,0,4,1.792,4,4S114.212,232,112,232z"/>
	<path style="fill:#F5F5F5;" d="M112,208H60c-2.212,0-4-1.792-4-4s1.788-4,4-4h52c2.212,0,4,1.792,4,4S114.212,208,112,208z"/>
	<path style="fill:#F5F5F5;" d="M112,188H60c-2.212,0-4-1.792-4-4s1.788-4,4-4h52c2.212,0,4,1.792,4,4S114.212,188,112,188z"/>
	<path style="fill:#F5F5F5;" d="M452,336h-52c-2.212,0-4-1.792-4-4s1.788-4,4-4h52c2.212,0,4,1.792,4,4S454.212,336,452,336z"/>
	<path style="fill:#F5F5F5;" d="M452,316h-52c-2.212,0-4-1.792-4-4s1.788-4,4-4h52c2.212,0,4,1.792,4,4S454.212,316,452,316z"/>
	<path style="fill:#F5F5F5;" d="M452,292h-52c-2.212,0-4-1.792-4-4s1.788-4,4-4h52c2.212,0,4,1.792,4,4S454.212,292,452,292z"/>
	<path style="fill:#F5F5F5;" d="M452,272h-52c-2.212,0-4-1.792-4-4s1.788-4,4-4h52c2.212,0,4,1.792,4,4S454.212,272,452,272z"/>
	<path style="fill:#F5F5F5;" d="M452,252h-52c-2.212,0-4-1.792-4-4s1.788-4,4-4h52c2.212,0,4,1.792,4,4S454.212,252,452,252z"/>
	<path style="fill:#F5F5F5;" d="M452,232h-52c-2.212,0-4-1.792-4-4s1.788-4,4-4h52c2.212,0,4,1.792,4,4S454.212,232,452,232z"/>
	<path style="fill:#F5F5F5;" d="M452,208h-52c-2.212,0-4-1.792-4-4s1.788-4,4-4h52c2.212,0,4,1.792,4,4S454.212,208,452,208z"/>
	<path style="fill:#F5F5F5;" d="M452,188h-52c-2.212,0-4-1.792-4-4s1.788-4,4-4h52c2.212,0,4,1.792,4,4S454.212,188,452,188z"/>
</g>
<g>
	<path style="fill:#CCCCCC;" d="M344,136v-16c0-4.4-3.6-8-8-8H176c-4.4,0-8,3.6-8,8v16H344z"/>
	<path style="fill:#CCCCCC;" d="M344,376v16c0,4.4-3.6,8-8,8H176c-4.4,0-8-3.6-8-8v-16H344z"/>
	<path style="fill:#CCCCCC;" d="M136,168h-16c-4.4,0-8,3.6-8,8v160c0,4.4,3.6,8,8,8h16V168z"/>
	<path style="fill:#CCCCCC;" d="M376,168h16c4.404,0,8,3.6,8,8v160c0,4.4-3.596,8-8,8h-16V168z"/>
</g>
<g>
	<rect x="168" y="132" style="fill:#B3B3B3;" width="176" height="4"/>
	<rect x="168" y="376" style="fill:#B3B3B3;" width="176" height="4"/>
	<rect x="132" y="168" style="fill:#B3B3B3;" width="4" height="176"/>
	<rect x="376" y="168" style="fill:#B3B3B3;" width="4" height="176"/>
</g>
<g>
</g>
<g>
</g>
<g>
</g>
<g>
</g>
<g>
</g>
<g>
</g>
<g>
</g>
<g>
</g>
<g>
</g>
<g>
</g>
<g>
</g>
<g>
</g>
<g>
</g>
<g>
</g>
<g>
</g>
</svg>
