<?xml version="1.0" encoding="iso-8859-1"?>
<!-- Generator: Adobe Illustrator 19.0.0, SVG Export Plug-In . SVG Version: 6.00 Build 0)  -->
<svg version="1.1" id="Layer_1" xmlns="http://www.w3.org/2000/svg" xmlns:xlink="http://www.w3.org/1999/xlink" x="0px" y="0px"
	 viewBox="0 0 512 512" style="enable-background:new 0 0 512 512;" xml:space="preserve">
<path style="fill:#EB305B;" d="M512,256c0,48.021-13.224,92.956-36.23,131.35c-4.819,8.061-10.071,15.833-15.733,23.283
	c-20.23,26.648-45.567,49.209-74.547,66.23c-15.567,9.16-32.199,16.71-49.653,22.428c-25.126,8.25-51.963,12.702-79.843,12.702
	s-54.716-4.452-79.832-12.702c-17.454-5.718-34.087-13.268-49.653-22.417c-28.979-17.021-54.317-39.583-74.524-66.241
	c-5.674-7.45-10.926-15.222-15.744-23.283C13.224,348.956,0,304.021,0,256C0,114.612,114.618,0.006,255.994,0.006
	C397.382,0.006,512,114.612,512,256z"/>
<g>
	<path style="fill:#F0A037;" d="M385.491,476.864c-15.567,9.16-32.199,16.71-49.653,22.428l-43.402-70.594l-18.431-29.979h63.432
		l18.431,29.979L385.491,476.864z"/>
	<path style="fill:#F0A037;" d="M237.996,398.72l-18.431,29.979l-43.402,70.594c-17.454-5.718-34.087-13.268-49.653-22.417
		l29.612-48.177l18.431-29.979L237.996,398.72L237.996,398.72z"/>
</g>
<g>
	<polygon style="fill:#E09132;" points="174.553,398.726 237.996,398.726 219.565,428.704 156.122,428.704 	"/>
	<polygon style="fill:#E09132;" points="355.867,428.704 292.435,428.704 274.004,398.726 337.436,398.726 	"/>
</g>
<rect x="50.852" y="133.305" style="fill:#E9E4D8;" width="410.306" height="270.973"/>
<rect x="50.852" y="133.305" style="fill:#E2DCC7;" width="410.306" height="28.313"/>
<g>
	<rect x="156.843" y="169.479" style="fill:#42577F;" width="14.085" height="188.976"/>
	<rect x="116.628" y="312.454" style="fill:#42577F;" width="244.192" height="14.085"/>
</g>
<polygon style="fill:#32AACE;" points="189.986,300.669 255.047,226.383 287.044,253.122 367.037,186.278 287.044,273.041 
	255.047,246.304 "/>
<g>
	<polygon style="fill:#434751;" points="129.206,141.937 468.076,141.937 468.076,95.366 43.929,95.366 43.929,141.937 
		103.947,141.937 	"/>
	<path style="fill:#434751;" d="M475.77,387.35c-4.819,8.061-10.071,15.833-15.733,23.283H51.985
		c-5.674-7.45-10.926-15.222-15.744-23.283H475.77z"/>
</g>
<polygon style="fill:#F0A037;" points="122.246,111.959 479.72,111.959 479.72,65.388 32.285,65.388 32.285,111.959 95.598,111.959 
	"/>
<g>
</g>
<g>
</g>
<g>
</g>
<g>
</g>
<g>
</g>
<g>
</g>
<g>
</g>
<g>
</g>
<g>
</g>
<g>
</g>
<g>
</g>
<g>
</g>
<g>
</g>
<g>
</g>
<g>
</g>
</svg>
