<?xml version="1.0" encoding="iso-8859-1"?>
<!-- Generator: Adobe Illustrator 19.0.0, SVG Export Plug-In . SVG Version: 6.00 Build 0)  -->
<svg version="1.1" id="Capa_1" xmlns="http://www.w3.org/2000/svg" xmlns:xlink="http://www.w3.org/1999/xlink" x="0px" y="0px"
	 viewBox="0 0 512 512" style="enable-background:new 0 0 512 512;" xml:space="preserve">
<circle style="fill:#590F38;" cx="256" cy="256" r="256"/>
<path style="fill:#3D0426;" d="M261.441,511.931c129.716-2.706,235.703-101.886,249.116-228.694L406.702,179.382L271,215
	l-6.44,15.971l-51.632-51.632L206.252,189l-48.004-48.004l-87.36,180.382L261.441,511.931z"/>
<path style="fill:#FFDC00;" d="M230.595,224.819c-6.858,0-13.08,2.708-17.668,7.107v-52.587h-53.652
	c5.024-4.664,8.171-11.322,8.171-18.717c0-14.105-11.434-25.539-25.539-25.539s-25.539,11.434-25.539,25.539
	c0,7.396,3.147,14.053,8.171,18.717H70.888v142.04h51.484c-3.744-4.443-6.003-10.178-6.003-16.443
	c0-14.105,11.434-25.539,25.539-25.539s25.539,11.434,25.539,25.539c0,6.265-2.26,12-6.003,16.443h51.484V268.79
	c4.588,4.399,10.81,7.108,17.668,7.108c14.105,0,25.539-11.434,25.539-25.539C256.134,236.253,244.7,224.819,230.595,224.819z"/>
<path style="fill:#FFC000;" d="M230.595,224.819c-6.858,0-13.08,2.708-17.667,7.107v-52.587h-53.652
	c5.024-4.664,8.171-11.322,8.171-18.717c0-14.105-11.434-25.539-25.539-25.539c-0.304,0-0.606,0.012-0.908,0.023V279.42
	c0.302-0.011,0.603-0.023,0.908-0.023c14.105,0,25.539,11.434,25.539,25.539c0,6.265-2.26,12-6.003,16.443h51.484V268.79
	c4.588,4.399,10.81,7.107,17.667,7.107c14.105,0,25.539-11.434,25.539-25.539S244.7,224.819,230.595,224.819z"/>
<path style="fill:#35CCFF;" d="M361.221,339.089c0-6.858-2.708-13.08-7.107-17.668h52.587V267.77
	c4.664,5.024,11.322,8.171,18.717,8.171c14.105,0,25.539-11.434,25.539-25.539c0-14.105-11.434-25.539-25.539-25.539
	c-7.396,0-14.053,3.147-18.717,8.171v-53.652h-142.04v51.484c4.443-3.744,10.178-6.003,16.443-6.003
	c14.105,0,25.539,11.434,25.539,25.539s-11.434,25.539-25.539,25.539c-6.265,0-12-2.26-16.443-6.003v51.484h52.588
	c-4.399,4.588-7.108,10.81-7.108,17.667c0,14.105,11.434,25.539,25.539,25.539C349.787,364.628,361.221,353.194,361.221,339.089z"/>
<path style="fill:#00BAFF;" d="M425.419,224.863c-7.396,0-14.053,3.147-18.717,8.17v-53.651H335v185.229
	c0.227,0.006,0.453,0.018,0.682,0.018c14.105,0,25.539-11.435,25.539-25.539c0-6.858-2.708-13.08-7.107-17.667h52.588V267.77
	c4.664,5.024,11.322,8.171,18.717,8.171c14.105,0,25.539-11.434,25.539-25.539S439.524,224.863,425.419,224.863z"/>
<g>
</g>
<g>
</g>
<g>
</g>
<g>
</g>
<g>
</g>
<g>
</g>
<g>
</g>
<g>
</g>
<g>
</g>
<g>
</g>
<g>
</g>
<g>
</g>
<g>
</g>
<g>
</g>
<g>
</g>
</svg>
